<svg width="220" height="220" viewBox="0 0 220 220" fill="none" xmlns="http://www.w3.org/2000/svg">
<g filter="url(#filter0_b_1315_19837)">
<circle cx="110" cy="110" r="110" fill="white"/>
</g>
<path d="M76.0464 96.3695C72.3344 96.3695 69.2944 95.3135 66.9264 93.2015C64.5584 91.0255 63.3744 88.3055 63.3744 85.0415C63.3744 81.8415 64.5584 79.1215 66.9264 76.8815C69.2944 74.6415 72.3344 73.5215 76.0464 73.5215C79.7584 73.5215 82.7984 74.6415 85.1664 76.8815C87.5344 79.1215 88.7184 81.8415 88.7184 85.0415C88.7184 88.3055 87.5344 91.0255 85.1664 93.2015C82.7984 95.3135 79.7584 96.3695 76.0464 96.3695ZM77.1024 143.218C69.2944 143.218 62.9584 141.618 58.0944 138.418C53.2304 135.218 50.7984 130.706 50.7984 124.882C50.7984 122.194 51.2464 119.858 52.1424 117.874C53.1024 115.826 54.2224 114.13 55.5024 112.786C56.7824 111.378 58.4144 109.842 60.3984 108.178C62.4464 106.386 63.9184 104.946 64.8144 103.858C65.7104 102.77 66.1584 101.554 66.1584 100.21H85.9344C85.9344 103.218 85.2624 105.746 83.9184 107.794C82.5744 109.778 80.6544 111.954 78.1584 114.322C76.5584 115.858 75.3744 117.106 74.6064 118.066C73.9024 119.026 73.5504 120.05 73.5504 121.138C73.5504 122.546 74.1584 123.666 75.3744 124.498C76.5904 125.266 78.1264 125.65 79.9824 125.65C82.0304 125.65 83.9504 125.074 85.7424 123.922C87.5344 122.706 88.9424 121.106 89.9664 119.122L107.054 127.666C104.494 132.53 100.686 136.338 95.6304 139.09C90.6384 141.842 84.4624 143.218 77.1024 143.218Z" fill="#DB5125"/>
<path d="M134.023 115.785C134.023 112.777 134.695 110.281 136.039 108.297C137.383 106.249 139.303 104.041 141.799 101.673C143.399 100.137 144.551 98.8894 145.255 97.9294C146.023 96.9694 146.407 95.9454 146.407 94.8574C146.407 93.4494 145.799 92.3614 144.583 91.5934C143.367 90.7614 141.831 90.3454 139.975 90.3454C137.927 90.3454 136.007 90.9534 134.215 92.1694C132.423 93.3214 131.015 94.8894 129.991 96.8734L112.903 88.3294C115.463 83.4654 119.239 79.6574 124.231 76.9054C129.287 74.1534 135.495 72.7774 142.855 72.7774C150.663 72.7774 156.999 74.3774 161.863 77.5774C166.727 80.7774 169.159 85.2894 169.159 91.1134C169.159 93.8014 168.679 96.1694 167.719 98.2174C166.823 100.201 165.735 101.897 164.455 103.305C163.175 104.649 161.543 106.153 159.559 107.817C157.511 109.609 156.039 111.049 155.143 112.137C154.247 113.225 153.799 114.441 153.799 115.785H134.023ZM143.911 142.473C140.199 142.473 137.159 141.353 134.791 139.113C132.423 136.873 131.239 134.153 131.239 130.953C131.239 127.689 132.423 125.001 134.791 122.889C137.159 120.713 140.199 119.625 143.911 119.625C147.623 119.625 150.663 120.713 153.031 122.889C155.399 125.001 156.583 127.689 156.583 130.953C156.583 134.153 155.399 136.873 153.031 139.113C150.663 141.353 147.623 142.473 143.911 142.473Z" fill="#DB5125"/>
<defs>
<filter id="filter0_b_1315_19837" x="-4" y="-4" width="228" height="228" filterUnits="userSpaceOnUse" color-interpolation-filters="sRGB">
<feFlood flood-opacity="0" result="BackgroundImageFix"/>
<feGaussianBlur in="BackgroundImageFix" stdDeviation="2"/>
<feComposite in2="SourceAlpha" operator="in" result="effect1_backgroundBlur_1315_19837"/>
<feBlend mode="normal" in="SourceGraphic" in2="effect1_backgroundBlur_1315_19837" result="shape"/>
</filter>
</defs>
</svg>
