<svg width="279" height="279" viewBox="0 0 279 279" fill="none" xmlns="http://www.w3.org/2000/svg">
<g filter="url(#filter0_b_1_1384)">
<circle cx="139.47" cy="139.484" r="138.705" fill="white"/>
<circle cx="139.47" cy="139.484" r="137.205" stroke="#DB5125" stroke-width="3"/>
</g>
<path d="M96.5443 130.08C91.5949 130.08 87.5416 128.672 84.3843 125.856C81.2269 122.954 79.6483 119.328 79.6483 114.976C79.6483 110.709 81.2269 107.082 84.3843 104.096C87.5416 101.109 91.5949 99.6156 96.5443 99.6156C101.494 99.6156 105.547 101.109 108.704 104.096C111.862 107.082 113.44 110.709 113.44 114.976C113.44 119.328 111.862 122.954 108.704 125.856C105.547 128.672 101.494 130.08 96.5443 130.08ZM97.9523 192.544C87.5416 192.544 79.0936 190.41 72.6083 186.144C66.1229 181.877 62.8802 175.861 62.8802 168.096C62.8802 164.512 63.4776 161.397 64.6723 158.752C65.9523 156.021 67.4456 153.76 69.1523 151.968C70.8589 150.09 73.0349 148.042 75.6803 145.824C78.4109 143.434 80.3736 141.514 81.5683 140.064C82.7629 138.613 83.3603 136.992 83.3603 135.2H109.728C109.728 139.21 108.832 142.581 107.04 145.312C105.248 147.957 102.688 150.858 99.3603 154.016C97.2269 156.064 95.6483 157.728 94.6243 159.008C93.6856 160.288 93.2163 161.653 93.2163 163.104C93.2163 164.981 94.0269 166.474 95.6483 167.584C97.2696 168.608 99.3176 169.12 101.792 169.12C104.523 169.12 107.083 168.352 109.472 166.816C111.862 165.194 113.739 163.061 115.104 160.416L137.888 171.808C134.475 178.293 129.398 183.37 122.656 187.04C116 190.709 107.766 192.544 97.9523 192.544ZM169.152 136.608C169.152 132.597 170.048 129.269 171.84 126.624C173.632 123.893 176.192 120.949 179.52 117.792C181.654 115.744 183.19 114.08 184.128 112.8C185.152 111.52 185.664 110.154 185.664 108.704C185.664 106.826 184.854 105.376 183.232 104.352C181.611 103.242 179.563 102.688 177.088 102.688C174.358 102.688 171.798 103.498 169.408 105.12C167.019 106.656 165.142 108.746 163.776 111.392L140.992 99.9996C144.406 93.5143 149.44 88.4369 156.096 84.7676C162.838 81.0983 171.115 79.2636 180.928 79.2636C191.339 79.2636 199.787 81.397 206.272 85.6636C212.758 89.9303 216 95.9463 216 103.712C216 107.296 215.36 110.453 214.08 113.184C212.886 115.829 211.435 118.09 209.728 119.968C208.022 121.76 205.846 123.765 203.2 125.984C200.47 128.373 198.507 130.293 197.312 131.744C196.118 133.194 195.52 134.816 195.52 136.608H169.152ZM182.336 172.192C177.387 172.192 173.334 170.698 170.176 167.712C167.019 164.725 165.44 161.098 165.44 156.832C165.44 152.48 167.019 148.896 170.176 146.08C173.334 143.178 177.387 141.728 182.336 141.728C187.286 141.728 191.339 143.178 194.496 146.08C197.654 148.896 199.232 152.48 199.232 156.832C199.232 161.098 197.654 164.725 194.496 167.712C191.339 170.698 187.286 172.192 182.336 172.192Z" fill="#DB5125"/>
<defs>
<filter id="filter0_b_1_1384" x="-3.23438" y="-3.22046" width="285.41" height="285.41" filterUnits="userSpaceOnUse" color-interpolation-filters="sRGB">
<feFlood flood-opacity="0" result="BackgroundImageFix"/>
<feGaussianBlur in="BackgroundImageFix" stdDeviation="2"/>
<feComposite in2="SourceAlpha" operator="in" result="effect1_backgroundBlur_1_1384"/>
<feBlend mode="normal" in="SourceGraphic" in2="effect1_backgroundBlur_1_1384" result="shape"/>
</filter>
</defs>
</svg>
