<svg width="83" height="83" viewBox="0 0 83 83" fill="none" xmlns="http://www.w3.org/2000/svg">
<g clip-path="url(#clip0_201_3767)">
<path d="M74.686 73.7133L74.7704 74.0227L75.0191 74.2254C75.6614 74.7487 76.0762 75.5578 76.0762 76.4451V79.0076C76.0762 80.5854 74.8102 81.8513 73.2324 81.8513H20.7012C12.7652 81.8513 6.32617 75.4123 6.32617 67.4763V16.2263C6.32617 8.29032 12.7652 1.85132 20.7012 1.85132H73.2324C74.8102 1.85132 76.0762 3.11727 76.0762 4.69507V58.5076C76.0762 59.3968 75.6602 60.2006 75.0279 60.7042L74.7721 60.9079L74.686 61.2234C74.3113 62.5973 74.1463 65.0901 74.1463 67.4683C74.1463 69.8465 74.3113 72.3393 74.686 73.7133ZM66.4098 73.6013H67.527L67.4036 72.4909C67.1075 69.8256 67.1075 65.127 67.4036 62.4618L67.527 61.3513H66.4098H20.7012C17.3301 61.3513 14.5762 64.1053 14.5762 67.4763C14.5762 70.8634 17.3141 73.6013 20.7012 73.6013H66.4098ZM26.7871 20.3513C25.7063 20.3513 24.8262 21.2315 24.8262 22.3123V25.5154C24.8262 26.5962 25.7063 27.4763 26.7871 27.4763H60.7402C61.821 27.4763 62.7012 26.5962 62.7012 25.5154V22.3123C62.7012 21.2315 61.821 20.3513 60.7402 20.3513H26.7871ZM26.7871 30.6013C25.7063 30.6013 24.8262 31.4815 24.8262 32.5623V35.7654C24.8262 36.8462 25.7063 37.7263 26.7871 37.7263H60.7402C61.821 37.7263 62.7012 36.8462 62.7012 35.7654V32.5623C62.7012 31.4815 61.821 30.6013 60.7402 30.6013H26.7871Z" stroke="#DB5125" stroke-width="2"/>
</g>
<defs>
<clipPath id="clip0_201_3767">
<rect width="82" height="82" fill="white" transform="translate(0.201172 0.851318)"/>
</clipPath>
</defs>
</svg>
