<svg width="83" height="83" viewBox="0 0 83 83" fill="none" xmlns="http://www.w3.org/2000/svg">
<g clip-path="url(#clip0_186_19)">
<path d="M68.2616 3.73179L68.2637 3.72985C69.8567 2.29851 71.9035 1.35144 74.0353 1.35144C78.1132 1.35144 81.7013 4.32944 81.7013 8.28718C81.7013 10.6162 80.7581 12.915 79.5897 15.188C70.5289 32.0982 64.607 42.2734 59.7327 48.2279C57.3049 51.1937 55.1811 53.0556 53.1127 54.1825C51.0625 55.2994 49.0076 55.7264 46.6565 55.7264C45.5966 55.7264 44.5629 55.5695 43.5327 55.3245L33.6666 47.1033C32.8979 45.3629 32.4513 43.4833 32.4513 41.526C32.4513 39.4464 32.6573 37.9588 33.3967 36.4175C34.1517 34.8438 35.501 33.1345 37.951 30.7046C40.7962 27.8826 44.9964 24.2091 51.2068 18.7775C55.7372 14.8152 61.3373 9.91724 68.2616 3.73179ZM9.54834 64.0718C11.0068 64.0718 12.2923 63.2225 12.8203 61.8274C14.4134 57.63 16.5788 55.0237 19.0473 53.4055C21.4224 51.8486 24.1604 51.1522 27.1199 50.9203L40.6033 62.1562C40.6101 62.2046 40.6168 62.2519 40.6233 62.2975C40.6337 62.3705 40.6435 62.4391 40.6517 62.5002C40.6822 62.7283 40.7013 62.9199 40.7013 63.1023C40.7013 68.9823 38.7032 73.5107 35.3342 76.577C31.9531 79.6545 27.0887 81.3514 21.2013 81.3514C14.2955 81.3514 9.47567 78.596 6.34906 74.3168C3.52071 70.4459 2.0296 65.2569 1.74878 59.5741C1.79793 59.6106 1.8478 59.6475 1.89837 59.685C2.66358 60.2517 3.5647 60.9141 4.4756 61.5446C5.38296 62.1726 6.31985 62.783 7.15586 63.2401C7.57365 63.4685 7.98423 63.6686 8.36578 63.8139C8.73088 63.9529 9.14556 64.0718 9.54834 64.0718Z" stroke="#DB5125" stroke-width="2"/>
</g>
<defs>
<clipPath id="clip0_186_19">
<rect width="82" height="82" fill="white" transform="translate(0.701172 0.35144)"/>
</clipPath>
</defs>
</svg>
