<svg width="83" height="83" viewBox="0 0 83 83" fill="none" xmlns="http://www.w3.org/2000/svg">
<g clip-path="url(#clip0_186_2460)">
<mask id="path-1-inside-1_186_2460" fill="white">
<path d="M63.2262 33.3893H43.7512V40.5643C43.7512 45.6509 39.6127 49.7893 34.5262 49.7893C29.4396 49.7893 25.3012 45.6509 25.3012 40.5643V24.9843L16.9859 29.9812C14.513 31.4547 13.0012 34.1325 13.0012 37.0025V43.0628L2.75116 48.9822C0.790852 50.1097 0.111789 52.6209 1.2521 54.5812L11.5021 72.3393C12.6296 74.2997 15.1409 74.9659 17.1012 73.8384L30.3493 66.1893H47.8512C52.374 66.1893 56.0512 62.5122 56.0512 57.9893H58.1012C60.369 57.9893 62.2012 56.1572 62.2012 53.8893V45.6893H63.2262C64.9302 45.6893 66.3012 44.3184 66.3012 42.6143V36.4643C66.3012 34.7603 64.9302 33.3893 63.2262 33.3893ZM82.1502 28.5975L71.9002 10.8393C70.7727 8.87903 68.2615 8.21278 66.3012 9.34028L53.053 16.9893H39.9587C38.4212 16.9893 36.9221 17.425 35.6152 18.2322L31.323 20.91C30.1187 21.6531 29.4012 22.9728 29.4012 24.3822V40.5643C29.4012 43.3959 31.6946 45.6893 34.5262 45.6893C37.3577 45.6893 39.6512 43.3959 39.6512 40.5643V29.2893H63.2262C67.1852 29.2893 70.4012 32.5053 70.4012 36.4643V40.1159L80.6512 34.1965C82.6115 33.0562 83.2777 30.5578 82.1502 28.5975Z"/>
</mask>
<path d="M63.2262 33.3893H43.7512V40.5643C43.7512 45.6509 39.6127 49.7893 34.5262 49.7893C29.4396 49.7893 25.3012 45.6509 25.3012 40.5643V24.9843L16.9859 29.9812C14.513 31.4547 13.0012 34.1325 13.0012 37.0025V43.0628L2.75116 48.9822C0.790852 50.1097 0.111789 52.6209 1.2521 54.5812L11.5021 72.3393C12.6296 74.2997 15.1409 74.9659 17.1012 73.8384L30.3493 66.1893H47.8512C52.374 66.1893 56.0512 62.5122 56.0512 57.9893H58.1012C60.369 57.9893 62.2012 56.1572 62.2012 53.8893V45.6893H63.2262C64.9302 45.6893 66.3012 44.3184 66.3012 42.6143V36.4643C66.3012 34.7603 64.9302 33.3893 63.2262 33.3893ZM82.1502 28.5975L71.9002 10.8393C70.7727 8.87903 68.2615 8.21278 66.3012 9.34028L53.053 16.9893H39.9587C38.4212 16.9893 36.9221 17.425 35.6152 18.2322L31.323 20.91C30.1187 21.6531 29.4012 22.9728 29.4012 24.3822V40.5643C29.4012 43.3959 31.6946 45.6893 34.5262 45.6893C37.3577 45.6893 39.6512 43.3959 39.6512 40.5643V29.2893H63.2262C67.1852 29.2893 70.4012 32.5053 70.4012 36.4643V40.1159L80.6512 34.1965C82.6115 33.0562 83.2777 30.5578 82.1502 28.5975Z" stroke="#DB5125" stroke-width="4" mask="url(#path-1-inside-1_186_2460)"/>
</g>
<defs>
<clipPath id="clip0_186_2460">
<rect width="82" height="82" fill="white" transform="translate(0.701172 0.589355)"/>
</clipPath>
</defs>
</svg>
