<svg width="83" height="83" viewBox="0 0 83 83" fill="none" xmlns="http://www.w3.org/2000/svg">
<g clip-path="url(#clip0_186_3)">
<path d="M10.0293 12.9162V13.7089V23.062V23.6282L9.54379 23.9195C8.67389 24.4415 8.10742 25.3097 8.10742 26.3132C8.10742 27.2669 8.62561 28.0976 9.43689 28.6343L10.0271 29.0247L9.85521 29.7112L7.35768 39.6852C7.35756 39.6857 7.35744 39.6862 7.35732 39.6867C7.28001 40.0022 7.33501 40.3069 7.44269 40.5062C7.49503 40.6031 7.54772 40.6533 7.57791 40.6745C7.59209 40.6844 7.60023 40.6873 7.6019 40.6879C7.60279 40.6882 7.6028 40.6882 7.60344 40.6882H7.60391H14.2984C14.299 40.6882 14.2992 40.6882 14.2995 40.6882C14.2997 40.6881 14.2999 40.6881 14.3004 40.6879C14.3021 40.6873 14.3103 40.6844 14.3244 40.6745C14.3546 40.6533 14.4073 40.6031 14.4597 40.5062C14.5673 40.3069 14.6223 40.0022 14.545 39.6868C14.5449 39.6863 14.5448 39.6858 14.5447 39.6852L12.0471 29.7112L11.8752 29.0247L12.4655 28.6343C13.2767 28.0976 13.7949 27.2669 13.7949 26.3132C13.7949 25.3097 13.2284 24.4415 12.3586 23.9195L11.873 23.6282V23.062V14.6378V13.3683L13.1073 13.6656L23.6776 16.2121L24.9002 16.5067L24.3378 17.6315C23.0188 20.2696 22.2012 23.1923 22.2012 26.3132C22.2012 37.084 30.9304 45.8132 41.7012 45.8132C52.4719 45.8132 61.2012 37.084 61.2012 26.3132C61.2012 23.1893 60.3981 20.2679 59.0666 17.6357L58.4963 16.5081L59.7248 16.2121L75.147 12.4967L10.0293 12.9162ZM10.0293 12.9162L9.25749 12.7353M10.0293 12.9162L9.25749 12.7353M9.25749 12.7353L8.23675 12.4961M9.25749 12.7353L8.23675 12.4961M8.23675 12.4961C7.22326 12.2482 6.83018 11.5498 6.83018 10.9382C6.83018 10.326 7.22398 9.62694 8.23955 9.37967C8.23987 9.3796 8.24019 9.37952 8.24051 9.37944L38.762 2.02929C38.7625 2.02918 38.763 2.02908 38.7634 2.02897C40.692 1.56929 42.7262 1.56928 44.6548 2.02893C44.6553 2.02905 44.6558 2.02917 44.6563 2.02929L75.147 9.39575C75.1471 9.39576 75.1471 9.39578 75.1472 9.39579C76.1769 9.6448 76.5682 10.3445 76.5682 10.9462C76.5682 11.5478 76.1771 12.2474 75.1478 12.4965L8.23675 12.4961ZM40.9941 68.0203L41.7012 68.7274L42.4083 68.0203L57.3718 53.0568C68.0913 53.7453 76.5762 62.5898 76.5762 73.4632V75.0007C76.5762 78.6926 73.5805 81.6882 69.8887 81.6882H13.5137C9.82182 81.6882 6.82617 78.6926 6.82617 75.0007V73.4632C6.82617 62.5898 15.3111 53.7453 26.0305 53.0568L40.9941 68.0203Z" stroke="#DB5125" stroke-width="2"/>
</g>
<defs>
<clipPath id="clip0_186_3">
<rect width="82" height="82" fill="white" transform="translate(0.701172 0.688232)"/>
</clipPath>
</defs>
</svg>
