<svg width="110" height="111" viewBox="0 0 110 111" fill="none" xmlns="http://www.w3.org/2000/svg">
<g id="heroicons:shopping-bag">
<path id="Vector" d="M72.1865 49.0544V28.4294C72.1865 23.871 70.3757 19.4993 67.1524 16.276C63.9291 13.0528 59.5574 11.2419 54.999 11.2419C50.4406 11.2419 46.0689 13.0528 42.8456 16.276C39.6223 19.4993 37.8115 23.871 37.8115 28.4294V49.0544M89.8598 39.9199L95.6486 94.9199C95.9694 97.9678 93.5861 100.617 90.5198 100.617H19.4782C18.755 100.618 18.0397 100.466 17.3788 100.173C16.7179 99.879 16.1262 99.4495 15.642 98.9123C15.1579 98.375 14.7922 97.7419 14.5688 97.0541C14.3453 96.3662 14.269 95.6391 14.3448 94.9199L20.1382 39.9199C20.2718 38.6528 20.8698 37.4802 21.8168 36.6279C22.7639 35.7757 23.9929 35.3042 25.2669 35.3044H84.7311C87.3711 35.3044 89.5848 37.2982 89.8598 39.9199ZM39.5303 49.0544C39.5303 49.5103 39.3492 49.9475 39.0269 50.2698C38.7045 50.5921 38.2674 50.7732 37.8115 50.7732C37.3557 50.7732 36.9185 50.5921 36.5962 50.2698C36.2738 49.9475 36.0928 49.5103 36.0928 49.0544C36.0928 48.5986 36.2738 48.1614 36.5962 47.8391C36.9185 47.5168 37.3557 47.3357 37.8115 47.3357C38.2674 47.3357 38.7045 47.5168 39.0269 47.8391C39.3492 48.1614 39.5303 48.5986 39.5303 49.0544ZM73.9053 49.0544C73.9053 49.5103 73.7242 49.9475 73.4019 50.2698C73.0795 50.5921 72.6424 50.7732 72.1865 50.7732C71.7307 50.7732 71.2935 50.5921 70.9712 50.2698C70.6488 49.9475 70.4678 49.5103 70.4678 49.0544C70.4678 48.5986 70.6488 48.1614 70.9712 47.8391C71.2935 47.5168 71.7307 47.3357 72.1865 47.3357C72.6424 47.3357 73.0795 47.5168 73.4019 47.8391C73.7242 48.1614 73.9053 48.5986 73.9053 49.0544Z" stroke="#DB5125" stroke-width="3" stroke-linecap="round" stroke-linejoin="round"/>
</g>
</svg>
