<svg width="69" height="69" viewBox="0 0 69 69" fill="none" xmlns="http://www.w3.org/2000/svg">
<path d="M23.625 53.5312V57.1816C23.6252 58.6102 23.3439 60.0249 22.7971 61.3448C22.2504 62.6646 21.449 63.8638 20.4386 64.8739L18.1875 67.125H50.8125L48.5614 64.8739C47.551 63.8638 46.7496 62.6646 46.2029 61.3448C45.6561 60.0249 45.3748 58.6102 45.375 57.1816V53.5312M67.125 10.0312V45.375C67.125 47.5382 66.2657 49.6127 64.7361 51.1423C63.2065 52.6719 61.1319 53.5312 58.9688 53.5312H10.0312C7.86808 53.5312 5.7935 52.6719 4.26391 51.1423C2.73432 49.6127 1.875 47.5382 1.875 45.375V10.0312M67.125 10.0312C67.125 7.86808 66.2657 5.7935 64.7361 4.26391C63.2065 2.73432 61.1319 1.875 58.9688 1.875H10.0312C7.86808 1.875 5.7935 2.73432 4.26391 4.26391C2.73432 5.7935 1.875 7.86808 1.875 10.0312M67.125 10.0312V34.5C67.125 36.6632 66.2657 38.7377 64.7361 40.2673C63.2065 41.7969 61.1319 42.6562 58.9688 42.6562H10.0312C7.86808 42.6562 5.7935 41.7969 4.26391 40.2673C2.73432 38.7377 1.875 36.6632 1.875 34.5V10.0312" stroke="#DB5125" stroke-width="3" stroke-linecap="round" stroke-linejoin="round"/>
</svg>
