<svg width="39" height="39" viewBox="0 0 39 39" fill="none" xmlns="http://www.w3.org/2000/svg">
<g id="fluent:phone-48-regular">
<path id="Vector" d="M13.3646 3.41666C12.4722 3.41666 11.6164 3.77114 10.9855 4.40212C10.3545 5.0331 10 5.8889 10 6.78124V31.7187C10 32.6111 10.3545 33.4669 10.9855 34.0979C11.6164 34.7288 12.4722 35.0833 13.3646 35.0833H25.6354C26.5278 35.0833 27.3836 34.7288 28.0145 34.0979C28.6455 33.4669 29 32.6111 29 31.7187V6.78124C29 5.8889 28.6455 5.0331 28.0145 4.40212C27.3836 3.77114 26.5278 3.41666 25.6354 3.41666H13.3646ZM11.9792 6.78124C11.9792 6.01649 12.5998 5.39582 13.3646 5.39582H25.6354C26.401 5.39582 27.0208 6.01649 27.0208 6.78124V31.7187C27.0208 32.0862 26.8749 32.4386 26.6151 32.6984C26.3552 32.9582 26.0029 33.1042 25.6354 33.1042H13.3646C12.9971 33.1042 12.6448 32.9582 12.3849 32.6984C12.1251 32.4386 11.9792 32.0862 11.9792 31.7187V6.78124ZM17.3229 28.3542C17.0605 28.3542 16.8088 28.4584 16.6232 28.644C16.4376 28.8296 16.3333 29.0813 16.3333 29.3437C16.3333 29.6062 16.4376 29.8579 16.6232 30.0435C16.8088 30.2291 17.0605 30.3333 17.3229 30.3333H21.6771C21.9395 30.3333 22.1912 30.2291 22.3768 30.0435C22.5624 29.8579 22.6667 29.6062 22.6667 29.3437C22.6667 29.0813 22.5624 28.8296 22.3768 28.644C22.1912 28.4584 21.9395 28.3542 21.6771 28.3542H17.3229Z" fill="#DB5125"/>
</g>
</svg>
