<svg width="110" height="110" viewBox="0 0 110 110" fill="none" xmlns="http://www.w3.org/2000/svg">
<g id="material-symbols-light:document-scanner-outline">
<path id="Vector" d="M11.457 25.2083V6.875H29.7904V11.4583H16.0404V25.2083H11.457ZM93.957 25.2083V11.4583H80.207V6.875H98.5404V25.2083H93.957ZM11.457 103.125V84.7917H16.0404V98.5417H29.7904V103.125H11.457ZM80.207 103.125V98.5417H93.957V84.7917H98.5404V103.125H80.207ZM29.7904 81.9729C29.7904 82.6757 30.0837 83.322 30.6704 83.9117C31.2601 84.4983 31.9063 84.7917 32.6091 84.7917H77.3883C78.0911 84.7917 78.7373 84.4983 79.327 83.9117C79.9137 83.322 80.207 82.6757 80.207 81.9729V28.0271C80.207 27.3243 79.9137 26.6781 79.327 26.0883C78.7373 25.5017 78.0911 25.2083 77.3883 25.2083H32.6091C31.9063 25.2083 31.2601 25.5017 30.6704 26.0883C30.0837 26.6781 29.7904 27.3243 29.7904 28.0271V81.9729ZM32.6091 89.375C30.5008 89.375 28.7408 88.6692 27.3291 87.2575C25.9144 85.8428 25.207 84.0813 25.207 81.9729V28.0271C25.207 25.9187 25.9144 24.1587 27.3291 22.7471C28.7408 21.3324 30.5008 20.625 32.6091 20.625H77.3883C79.4966 20.625 81.2566 21.3324 82.6683 22.7471C84.083 24.1587 84.7904 25.9187 84.7904 28.0271V81.9729C84.7904 84.0813 84.0845 85.8413 82.6729 87.2529C81.2581 88.6676 79.4966 89.375 77.3883 89.375H32.6091ZM43.5404 43.5417H66.457V38.9583H43.5404V43.5417ZM43.5404 57.2917H66.457V52.7083H43.5404V57.2917ZM43.5404 71.0417H66.457V66.4583H43.5404V71.0417ZM29.7904 81.9729V25.2083V84.7917V81.9729Z" fill="#DB5125"/>
</g>
</svg>
