<svg width="101" height="101" viewBox="0 0 101 101" fill="none" xmlns="http://www.w3.org/2000/svg">
<g id="fluent:group-20-regular">
<path id="Vector" d="M35.5 22.7894C35.5 23.6444 35.415 24.4794 35.25 25.2894H50.5C51.8261 25.2894 53.0979 25.8162 54.0355 26.7539C54.9732 27.6916 55.5 28.9633 55.5 30.2894V40.2894H50.5C47.8478 40.2894 45.3043 41.343 43.4289 43.2184C41.5536 45.0937 40.5 47.6373 40.5 50.2894V55.2894H30.5C29.1739 55.2894 27.9021 54.7626 26.9645 53.825C26.0268 52.8873 25.5 51.6155 25.5 50.2894V35.0394C23.8502 35.3745 22.1498 35.3745 20.5 35.0394V50.2894C20.5 52.9416 21.5536 55.4851 23.4289 57.3605C25.3043 59.2359 27.8478 60.2894 30.5 60.2894H40.5V70.2894C40.5 72.9416 41.5536 75.4851 43.4289 77.3605C45.3043 79.2359 47.8478 80.2894 50.5 80.2894H65.75C65.4149 78.6396 65.4149 76.9393 65.75 75.2894H50.5C49.1739 75.2894 47.9021 74.7626 46.9645 73.825C46.0268 72.8873 45.5 71.6155 45.5 70.2894V60.2894H50.5C53.1522 60.2894 55.6957 59.2359 57.5711 57.3605C59.4464 55.4851 60.5 52.9416 60.5 50.2894V45.2894H70.5C71.8261 45.2894 73.0979 45.8162 74.0355 46.7539C74.9732 47.6916 75.5 48.9633 75.5 50.2894V65.5394C77.1498 65.2043 78.8502 65.2043 80.5 65.5394V50.2894C80.5 47.6373 79.4464 45.0937 77.5711 43.2184C75.6957 41.343 73.1522 40.2894 70.5 40.2894H60.5V30.2894C60.5 27.6373 59.4464 25.0937 57.5711 23.2184C55.6957 21.343 53.1522 20.2894 50.5 20.2894H35.25C35.415 21.0994 35.5 21.9344 35.5 22.7894ZM55.5 45.2894V50.2894C55.5 51.6155 54.9732 52.8873 54.0355 53.825C53.0979 54.7626 51.8261 55.2894 50.5 55.2894H45.5V50.2894C45.5 48.9633 46.0268 47.6916 46.9645 46.7539C47.9021 45.8162 49.1739 45.2894 50.5 45.2894H55.5ZM30.5 22.7894C30.5 24.7786 29.7098 26.6862 28.3033 28.0927C26.8968 29.4993 24.9891 30.2894 23 30.2894C21.0109 30.2894 19.1032 29.4993 17.6967 28.0927C16.2902 26.6862 15.5 24.7786 15.5 22.7894C15.5 20.8003 16.2902 18.8927 17.6967 17.4861C19.1032 16.0796 21.0109 15.2894 23 15.2894C24.9891 15.2894 26.8968 16.0796 28.3033 17.4861C29.7098 18.8927 30.5 20.8003 30.5 22.7894ZM85.5 77.7894C85.5 79.7785 84.7098 81.6862 83.3033 83.0927C81.8968 84.4993 79.9891 85.2894 78 85.2894C76.0109 85.2894 74.1032 84.4993 72.6967 83.0927C71.2902 81.6862 70.5 79.7785 70.5 77.7894C70.5 75.8003 71.2902 73.8927 72.6967 72.4861C74.1032 71.0796 76.0109 70.2894 78 70.2894C79.9891 70.2894 81.8968 71.0796 83.3033 72.4861C84.7098 73.8927 85.5 75.8003 85.5 77.7894ZM85.5 22.7894C85.5 24.7786 84.7098 26.6862 83.3033 28.0927C81.8968 29.4993 79.9891 30.2894 78 30.2894C76.0109 30.2894 74.1032 29.4993 72.6967 28.0927C71.2902 26.6862 70.5 24.7786 70.5 22.7894C70.5 20.8003 71.2902 18.8927 72.6967 17.4861C74.1032 16.0796 76.0109 15.2894 78 15.2894C79.9891 15.2894 81.8968 16.0796 83.3033 17.4861C84.7098 18.8927 85.5 20.8003 85.5 22.7894ZM30.5 77.7894C30.5 79.7785 29.7098 81.6862 28.3033 83.0927C26.8968 84.4993 24.9891 85.2894 23 85.2894C21.0109 85.2894 19.1032 84.4993 17.6967 83.0927C16.2902 81.6862 15.5 79.7785 15.5 77.7894C15.5 75.8003 16.2902 73.8927 17.6967 72.4861C19.1032 71.0796 21.0109 70.2894 23 70.2894C24.9891 70.2894 26.8968 71.0796 28.3033 72.4861C29.7098 73.8927 30.5 75.8003 30.5 77.7894Z" fill="white"/>
</g>
</svg>
