<svg width="96" height="96" viewBox="0 0 96 96" fill="none" xmlns="http://www.w3.org/2000/svg">
<g id="bi:card-checklist" clip-path="url(#clip0_1786_2199)">
<g id="Group">
<path id="Vector" d="M86.5938 18.6019C87.3811 18.6019 88.1362 18.9147 88.693 19.4715C89.2497 20.0282 89.5625 20.7833 89.5625 21.5707V75.0082C89.5625 75.7955 89.2497 76.5507 88.693 77.1074C88.1362 77.6642 87.3811 77.9769 86.5938 77.9769H9.40625C8.61889 77.9769 7.86378 77.6642 7.30703 77.1074C6.75028 76.5507 6.4375 75.7955 6.4375 75.0082V21.5707C6.4375 20.7833 6.75028 20.0282 7.30703 19.4715C7.86378 18.9147 8.61889 18.6019 9.40625 18.6019H86.5938ZM9.40625 12.6644C7.04417 12.6644 4.77883 13.6028 3.10858 15.273C1.43833 16.9433 0.5 19.2086 0.5 21.5707L0.5 75.0082C0.5 77.3703 1.43833 79.6356 3.10858 81.3058C4.77883 82.9761 7.04417 83.9144 9.40625 83.9144H86.5938C88.9558 83.9144 91.2212 82.9761 92.8914 81.3058C94.5617 79.6356 95.5 77.3703 95.5 75.0082V21.5707C95.5 19.2086 94.5617 16.9433 92.8914 15.273C91.2212 13.6028 88.9558 12.6644 86.5938 12.6644H9.40625Z" fill="white"/>
<path id="Vector_2" d="M42.0626 33.4457C42.0626 32.6583 42.3754 31.9032 42.9321 31.3465C43.4889 30.7897 44.244 30.4769 45.0313 30.4769H74.7188C75.5062 30.4769 76.2613 30.7897 76.8181 31.3465C77.3748 31.9032 77.6876 32.6583 77.6876 33.4457C77.6876 34.233 77.3748 34.9881 76.8181 35.5449C76.2613 36.1016 75.5062 36.4144 74.7188 36.4144H45.0313C44.244 36.4144 43.4889 36.1016 42.9321 35.5449C42.3754 34.9881 42.0626 34.233 42.0626 33.4457ZM33.1801 28.375C33.4566 28.6508 33.6759 28.9784 33.8256 29.3391C33.9752 29.6998 34.0523 30.0864 34.0523 30.4769C34.0523 30.8674 33.9752 31.2541 33.8256 31.6147C33.6759 31.9754 33.4566 32.303 33.1801 32.5788L24.2738 41.4851C23.9981 41.7615 23.6705 41.9809 23.3098 42.1305C22.9491 42.2802 22.5625 42.3572 22.172 42.3572C21.7815 42.3572 21.3948 42.2802 21.0341 42.1305C20.6735 41.9809 20.3459 41.7615 20.0701 41.4851L17.1013 38.5163C16.8253 38.2403 16.6064 37.9126 16.457 37.552C16.3076 37.1913 16.2307 36.8048 16.2307 36.4144C16.2307 35.6261 16.5439 34.87 17.1013 34.3125C17.6588 33.7551 18.4149 33.4419 19.2032 33.4419C19.9916 33.4419 20.7476 33.7551 21.3051 34.3125L22.172 35.1854L28.9763 28.375C29.2521 28.0986 29.5797 27.8792 29.9404 27.7296C30.3011 27.5799 30.6877 27.5029 31.0782 27.5029C31.4687 27.5029 31.8554 27.5799 32.216 27.7296C32.5767 27.8792 32.9043 28.0986 33.1801 28.375ZM42.0626 57.1957C42.0626 56.4083 42.3754 55.6532 42.9321 55.0964C43.4889 54.5397 44.244 54.2269 45.0313 54.2269H74.7188C75.5062 54.2269 76.2613 54.5397 76.8181 55.0964C77.3748 55.6532 77.6876 56.4083 77.6876 57.1957C77.6876 57.983 77.3748 58.7382 76.8181 59.2949C76.2613 59.8517 75.5062 60.1644 74.7188 60.1644H45.0313C44.244 60.1644 43.4889 59.8517 42.9321 59.2949C42.3754 58.7382 42.0626 57.983 42.0626 57.1957ZM33.1801 52.125C33.4566 52.4008 33.6759 52.7284 33.8256 53.0891C33.9752 53.4498 34.0523 53.8364 34.0523 54.2269C34.0523 54.6174 33.9752 55.0041 33.8256 55.3647C33.6759 55.7254 33.4566 56.053 33.1801 56.3288L24.2738 65.2351C23.9981 65.5115 23.6705 65.7309 23.3098 65.8805C22.9491 66.0302 22.5625 66.1072 22.172 66.1072C21.7815 66.1072 21.3948 66.0302 21.0341 65.8805C20.6735 65.7309 20.3459 65.5115 20.0701 65.2351L17.1013 62.2663C16.8253 61.9903 16.6064 61.6626 16.457 61.302C16.3076 60.9413 16.2307 60.5548 16.2307 60.1644C16.2307 59.7741 16.3076 59.3875 16.457 59.0269C16.6064 58.6663 16.8253 58.3386 17.1013 58.0625C17.3774 57.7865 17.705 57.5676 18.0657 57.4182C18.4263 57.2688 18.8129 57.1919 19.2032 57.1919C19.5936 57.1919 19.9801 57.2688 20.3407 57.4182C20.7014 57.5676 21.0291 57.7865 21.3051 58.0625L22.172 58.9354L28.9763 52.125C29.2521 51.8486 29.5797 51.6292 29.9404 51.4796C30.3011 51.3299 30.6877 51.2529 31.0782 51.2529C31.4687 51.2529 31.8554 51.3299 32.216 51.4796C32.5767 51.6292 32.9043 51.8486 33.1801 52.125Z" fill="white"/>
</g>
</g>
<defs>
<clipPath id="clip0_1786_2199">
<rect width="95" height="95" fill="white" transform="translate(0.5 0.789429)"/>
</clipPath>
</defs>
</svg>
