<svg width="95" height="96" viewBox="0 0 95 96" fill="none" xmlns="http://www.w3.org/2000/svg">
<g id="fluent:signature-28-regular">
<path id="Vector" d="M54.9853 69.44L55.8004 69.434C59.4834 69.434 61.4216 70.9615 63.8095 74.5782L64.9959 76.4137C65.9227 77.7873 66.5024 78.3609 67.2299 78.6628C68.5371 79.2001 69.6209 78.9345 73.5968 77.0205L74.8134 76.4288C77.301 75.2091 78.9976 74.5087 80.9116 74.0287C81.4945 73.883 82.1114 73.9748 82.6266 74.2839C83.1418 74.5931 83.5131 75.0942 83.6588 75.6771C83.8045 76.26 83.7127 76.8768 83.4036 77.392C83.0945 77.9072 82.5934 78.2785 82.0105 78.4243C80.821 78.7201 79.6799 79.1488 78.1855 79.8371L74.6866 81.5186C69.953 83.7526 68.3469 84.0213 65.5061 82.847C63.6193 82.0711 62.5476 80.9451 60.9778 78.545L60.3891 77.6273C58.6925 74.9556 57.7808 74.077 56.1626 73.9744L55.8004 73.9623C54.146 73.9623 53.82 74.1676 47.5286 78.8379C42.2696 82.7413 38.2575 84.604 33.1586 84.604C26.9397 84.604 21.0769 83.4628 15.5946 81.1775L24.2951 79.1669C27.1449 79.7707 30.0974 80.0756 33.1556 80.0756C37.05 80.0756 40.2802 78.5752 44.8297 75.2001L48.3316 72.6159C52.1686 69.8264 53.023 69.4823 54.9853 69.44ZM73.9983 15.7639C76.4236 18.1903 77.7861 21.4805 77.7861 24.9112C77.7861 28.3419 76.4236 31.6321 73.9983 34.0585L70.8707 37.1861C74.3485 41.4186 74.2217 45.9016 70.9915 49.1439L61.9318 58.2067C61.7212 58.4168 61.4714 58.5834 61.1965 58.6969C60.9216 58.8105 60.627 58.8688 60.3296 58.8685C60.0322 58.8683 59.7377 58.8094 59.463 58.6953C59.1883 58.5812 58.9388 58.4142 58.7287 58.2037C58.5186 57.9931 58.352 57.7433 58.2384 57.4684C58.1249 57.1935 58.0666 56.8989 58.0668 56.6015C58.0671 56.3041 58.126 56.0096 58.2401 55.7349C58.3541 55.4602 58.5212 55.2107 58.7317 55.0006L67.7824 45.9469C69.2466 44.4797 69.4186 42.6563 67.6616 40.3982L35.6824 72.3804C34.7813 73.2806 33.6452 73.9094 32.4039 74.1948L14.0489 78.4333C13.6745 78.5201 13.2841 78.5102 12.9145 78.4044C12.545 78.2986 12.2084 78.1005 11.9366 77.8287C11.6648 77.5568 11.4667 77.2203 11.3609 76.8507C11.2551 76.4812 11.2451 76.0908 11.3319 75.7163L15.5675 57.3614C15.8529 56.12 16.4816 54.984 17.3818 54.0829L55.7007 15.7639C56.902 14.5627 58.328 13.6098 59.8975 12.9596C61.467 12.3095 63.1492 11.9749 64.848 11.9749C66.5468 11.9749 68.229 12.3095 69.7985 12.9596C71.368 13.6098 72.7971 14.5627 73.9983 15.7639ZM58.9038 18.964L20.5849 57.2889C20.2852 57.5894 20.0759 57.9681 19.9811 58.3818L16.5546 73.2046L31.3835 69.7842C31.7961 69.6888 32.1736 69.4796 32.4733 69.1804L70.7953 30.8554C72.3726 29.2781 73.2587 27.1388 73.2587 24.9082C73.2587 22.6775 72.3726 20.5382 70.7953 18.9609C69.218 17.3836 67.0787 16.4975 64.848 16.4975C62.6174 16.4975 60.4781 17.3836 58.9008 18.9609L58.9038 18.964Z" fill="white"/>
</g>
</svg>
