<svg width="100" height="101" viewBox="0 0 100 101" fill="none" xmlns="http://www.w3.org/2000/svg">
<g id="iconoir:megaphone">
<path id="Vector" d="M58.3333 59.2627V25.9294M58.3333 59.2627L83.7583 73.7919C84.1383 74.0093 84.5687 74.1232 85.0064 74.122C85.4442 74.1209 85.874 74.0049 86.2528 73.7855C86.6316 73.5661 86.9462 73.2511 87.1651 72.872C87.3839 72.4929 87.4994 72.063 87.5 71.6252V13.5669C87.5002 13.1288 87.3852 12.6983 87.1666 12.3186C86.948 11.9389 86.6335 11.6234 86.2546 11.4035C85.8756 11.1836 85.4456 11.0672 85.0075 11.0659C84.5693 11.0646 84.1386 11.1785 83.7583 11.3961L58.3333 25.9294M58.3333 59.2627H29.1667M58.3333 25.9294H29.1667C24.7464 25.9294 20.5072 27.6853 17.3816 30.811C14.2559 33.9366 12.5 38.1758 12.5 42.5961C12.5 47.0163 14.2559 51.2556 17.3816 54.3812C20.5072 57.5068 24.7464 59.2627 29.1667 59.2627M29.1667 59.2627L32.3208 81.3461C32.6499 83.4946 33.8137 85.4265 35.5591 86.7218C37.3046 88.0172 39.4907 88.5714 41.6424 88.264C43.7942 87.9566 45.7377 86.8124 47.0506 85.0802C48.3636 83.3479 48.9398 81.1675 48.6542 79.0127L45.8333 59.2627H29.1667Z" stroke="#DB5125" stroke-width="3"/>
</g>
</svg>
