<svg width="100" height="101" viewBox="0 0 100 101" fill="none" xmlns="http://www.w3.org/2000/svg">
<g id="emojione-monotone:robot-face">
<path id="Vector" d="M12.1909 23.6466C14.6691 20.5466 19.7409 19.9435 23.355 19.2294C26.3878 18.6294 29.6816 18.2732 32.5441 17.0513C36.6003 15.4888 36.4191 9.34663 37.6503 9.34663C38.5691 9.34663 41.8644 14.0638 44.7581 14.0638C47.2269 14.0638 48.7894 8.28726 50.1534 8.28726C51.5238 8.28726 53.0769 14.0638 55.5456 14.0638C58.4425 14.0638 61.7378 9.34663 62.6566 9.34663C63.8831 9.34663 63.7066 15.4888 67.7628 17.0513C70.6253 18.2716 73.9175 18.6294 76.9519 19.2294C80.5659 19.9435 85.6378 20.5466 88.116 23.6466C89.0253 24.7826 90.8175 23.4701 90.0019 22.2607C88.9769 20.7373 87.4441 19.6701 85.8238 18.8732C80.5472 16.2826 67.6378 16.8263 66.5519 10.0404C65.1238 1.14351 57.4034 10.1373 55.9722 10.1373C54.3144 10.1373 53.5113 4.05444 50.1519 4.05444C46.7894 4.05444 45.9894 10.1373 44.3347 10.1373C42.9034 10.1373 35.18 1.14351 33.755 10.0404C32.6691 16.8279 19.7566 16.2826 14.4831 18.8732C12.8628 19.6701 11.3269 20.7373 10.305 22.2607C9.48939 23.4701 11.2816 24.7826 12.1909 23.6466Z" fill="#DB5125"/>
<path id="Vector_2" d="M90.625 25.8982C88.9674 25.8982 87.3777 26.5567 86.2056 27.7288C85.0335 28.9009 84.375 30.4906 84.375 32.1482C84.375 35.0544 86.3734 37.4794 89.0625 38.1763V75.8982H88.2812V72.1591C88.2812 68.5607 85.8797 65.7419 82.8125 65.7419V57.1794C82.8125 33.0169 74.1641 19.6794 50 19.6794C25.8391 19.6794 17.1875 33.0169 17.1875 57.1794V65.7419C14.1719 65.7419 11.7188 68.6216 11.7188 72.1591V75.8982H10.9375V38.1779C12.2765 37.8349 13.4636 37.0567 14.3122 35.9655C15.1607 34.8743 15.6225 33.532 15.625 32.1498C15.625 30.4922 14.9665 28.9024 13.7944 27.7303C12.6223 26.5582 11.0326 25.8998 9.375 25.8998C7.7174 25.8998 6.12769 26.5582 4.95558 27.7303C3.78348 28.9024 3.125 30.4922 3.125 32.1498C3.125 35.056 5.12344 37.481 7.8125 38.1779V79.0232H11.7188V82.7591C11.7188 86.3607 14.1203 89.1794 17.1875 89.1794V89.9919C17.1875 92.0639 18.0106 94.0511 19.4757 95.5162C20.9409 96.9813 22.928 97.8044 25 97.8044H75C77.072 97.8044 79.0591 96.9813 80.5243 95.5162C81.9894 94.0511 82.8125 92.0639 82.8125 89.9919V89.1794C85.8797 89.1794 88.2812 86.3591 88.2812 82.7591V79.0232H92.1875V38.1779C93.5266 37.8349 94.7136 37.0567 95.5622 35.9655C96.4107 34.8743 96.8725 33.532 96.875 32.1498C96.8756 31.3287 96.7144 30.5157 96.4005 29.757C96.0867 28.9984 95.6264 28.309 95.0459 27.7284C94.4654 27.1478 93.7762 26.6873 93.0176 26.3733C92.259 26.0592 91.446 25.8978 90.625 25.8982ZM9.375 36.0544C7.22031 36.0544 5.46875 34.3029 5.46875 32.1482C5.46875 29.9935 7.22031 28.2419 9.375 28.2419C11.5297 28.2419 13.2812 29.9935 13.2812 32.1482C13.2812 34.3029 11.5297 36.0544 9.375 36.0544ZM17.1875 86.8357C15.4625 86.8357 14.0625 85.0107 14.0625 82.7591V72.1591C14.0625 69.9107 15.4625 68.0857 17.1875 68.0857V86.8357ZM78.9062 89.9919C78.9062 92.1466 77.1547 93.8982 75 93.8982H25C23.9643 93.8974 22.9712 93.4855 22.2388 92.7532C21.5064 92.0208 21.0946 91.0277 21.0938 89.9919V57.1794C21.0938 57.1794 20.5766 50.7888 22.7141 41.9013C25.8141 29.0185 34.5875 23.5857 50 23.5857C65.4125 23.5857 73.8625 29.0998 77.2859 41.9013C79.4422 49.9638 78.9062 57.1794 78.9062 57.1794V89.9919ZM85.9375 75.8982V82.7591C85.9375 85.0107 84.5391 86.8357 82.8125 86.8357V68.0857C84.5391 68.0857 85.9375 69.9107 85.9375 72.1591V75.8982ZM90.625 36.0544C88.4703 36.0544 86.7188 34.3029 86.7188 32.1482C86.7188 29.9935 88.4703 28.2419 90.625 28.2419C92.7797 28.2419 94.5312 29.9935 94.5312 32.1482C94.5312 34.3029 92.7797 36.0544 90.625 36.0544Z" fill="#DB5125"/>
<path id="Vector_3" d="M33.5926 59.5232C36.079 59.5232 38.4636 58.5355 40.2217 56.7773C41.9799 55.0192 42.9676 52.6346 42.9676 50.1482C42.9676 48.294 42.4177 46.4814 41.3876 44.9397C40.3575 43.398 38.8933 42.1964 37.1802 41.4868C35.4672 40.7773 33.5822 40.5916 31.7636 40.9533C29.945 41.3151 28.2746 42.208 26.9635 43.5191C25.6523 44.8302 24.7595 46.5007 24.3977 48.3192C24.036 50.1378 24.2216 52.0228 24.9312 53.7359C25.6408 55.4489 26.8424 56.9131 28.3841 57.9432C29.9258 58.9734 31.7384 59.5232 33.5926 59.5232ZM33.5926 46.5779C34.5399 46.5779 35.4484 46.9542 36.1183 47.6241C36.7881 48.2939 37.1645 49.2024 37.1645 50.1498C37.1645 51.0971 36.7881 52.0056 36.1183 52.6755C35.4484 53.3453 34.5399 53.7216 33.5926 53.7216C32.6453 53.7216 31.7367 53.3453 31.0669 52.6755C30.397 52.0056 30.0207 51.0971 30.0207 50.1498C30.0207 49.2024 30.397 48.2939 31.0669 47.6241C31.7367 46.9542 32.6453 46.5779 33.5926 46.5779ZM66.4051 40.7732C63.9187 40.7732 61.5341 41.7609 59.776 43.5191C58.0178 45.2772 57.0301 47.6618 57.0301 50.1482C57.0301 52.6346 58.0178 55.0192 59.776 56.7773C61.5341 58.5355 63.9187 59.5232 66.4051 59.5232C68.8915 59.5232 71.2761 58.5355 73.0342 56.7773C74.7924 55.0192 75.7801 52.6346 75.7801 50.1482C75.7801 47.6618 74.7924 45.2772 73.0342 43.5191C71.2761 41.7609 68.8915 40.7732 66.4051 40.7732ZM66.4051 53.7216C65.4582 53.7216 64.5501 53.3455 63.8805 52.6759C63.2109 52.0064 62.8348 51.0982 62.8348 50.1513C62.8348 49.2044 63.2109 48.2963 63.8805 47.6267C64.5501 46.9572 65.4582 46.581 66.4051 46.581C67.352 46.581 68.2601 46.9572 68.9297 47.6267C69.5992 48.2963 69.9754 49.2044 69.9754 50.1513C69.9754 51.0982 69.5992 52.0064 68.9297 52.6759C68.2601 53.3455 67.352 53.7216 66.4051 53.7216ZM69.1113 65.1294H30.8895C19.391 65.1294 19.391 85.442 30.8895 85.442H69.1129C80.6082 85.442 80.6082 65.1294 69.1113 65.1294ZM67.9863 83.0982H32.0113C22.6613 83.0982 22.6613 67.4732 32.0113 67.4732H67.9848C77.3363 67.4732 77.3363 83.0982 67.9863 83.0982Z" fill="#DB5125"/>
<path id="Vector_4" d="M29.9883 70.4826V80.0889C29.9883 82.017 33.1133 82.017 33.1133 80.0889V70.4826C33.1133 68.5529 29.9883 68.5529 29.9883 70.4826ZM37.368 70.4826V80.0889C37.368 82.017 40.493 82.017 40.493 80.0889V70.4826C40.493 68.5529 37.368 68.5529 37.368 70.4826ZM44.7477 70.4826V80.0889C44.7477 82.017 47.8727 82.017 47.8727 80.0889V70.4826C47.8727 68.5529 44.7477 68.5529 44.7477 70.4826ZM52.1258 70.4826V80.0889C52.1258 82.017 55.2508 82.017 55.2508 80.0889V70.4826C55.2508 68.5529 52.1258 68.5529 52.1258 70.4826ZM59.5055 70.4826V80.0889C59.5055 82.017 62.6305 82.017 62.6305 80.0889V70.4826C62.6305 68.5529 59.5055 68.5529 59.5055 70.4826ZM66.8852 70.4826V80.0889C66.8852 82.017 70.0102 82.017 70.0102 80.0889V70.4826C70.0102 68.5529 66.8852 68.5529 66.8852 70.4826ZM49.9992 62.617C51.043 62.617 52.0227 62.2107 52.7617 61.4732C53.5008 60.7357 53.9055 59.7514 53.9055 58.7076C53.9055 57.6639 53.4977 56.6842 52.7617 55.9482C51.2852 54.4717 48.7148 54.4717 47.2383 55.9482C46.5008 56.6842 46.0945 57.6639 46.0945 58.7076C46.0945 59.7514 46.5008 60.7342 47.2383 61.4732C47.9758 62.2123 48.9555 62.617 49.9992 62.617ZM49.9992 56.367C50.6242 56.367 51.2133 56.6107 51.657 57.0529C52.0237 57.417 52.2583 57.8932 52.3237 58.4058C52.3891 58.9184 52.2815 59.4381 52.018 59.8826L48.8258 56.692C49.1805 56.4873 49.5789 56.367 49.9992 56.367ZM47.982 57.5373L51.1445 60.6998C50.2555 61.192 49.0805 61.1076 48.3414 60.3686C48.1231 60.1507 47.9501 59.8918 47.8323 59.6067C47.7146 59.3216 47.6545 59.016 47.6555 58.7076C47.6555 58.2873 47.7742 57.8889 47.982 57.5373Z" fill="#DB5125"/>
</g>
</svg>
