<svg width="110" height="110" viewBox="0 0 110 110" fill="none" xmlns="http://www.w3.org/2000/svg">
<g id="teenyicons:briefcase-outline">
<path id="Vector" d="M40.3346 22.0001V18.3334C40.3346 14.4436 41.8799 10.713 44.6304 7.96252C47.3809 5.21198 51.1115 3.66675 55.0013 3.66675C58.8911 3.66675 62.6217 5.21198 65.3722 7.96252C68.1227 10.713 69.668 14.4436 69.668 18.3334V22.0001M3.66797 84.3334H106.335M11.0013 25.6667H99.0013C100.946 25.6667 102.811 26.4394 104.187 27.8146C105.562 29.1899 106.335 31.0552 106.335 33.0001V99.0001C106.335 100.945 105.562 102.81 104.187 104.186C102.811 105.561 100.946 106.333 99.0013 106.333H11.0013C9.05638 106.333 7.19112 105.561 5.81585 104.186C4.44059 102.81 3.66797 100.945 3.66797 99.0001V33.0001C3.66797 31.0552 4.44059 29.1899 5.81585 27.8146C7.19112 26.4394 9.05638 25.6667 11.0013 25.6667Z" stroke="#DB5125" stroke-width="3"/>
<path id="Vector_2" d="M42.7539 69.1002V65.3726C42.7539 63.3953 43.5394 61.499 44.9375 60.1009C46.3357 58.7027 48.232 57.9172 50.2092 57.9172H54.8688M66.9856 69.1002C65.9969 69.1002 65.0488 68.7075 64.3497 68.0084C63.6507 67.3094 63.2579 66.3612 63.2579 65.3726C63.2579 64.3839 63.6507 63.4358 64.3497 62.7367C65.0488 62.0376 65.9969 61.6449 66.9856 61.6449M66.9856 69.1002C67.9742 69.1002 68.9224 68.7075 69.6214 68.0084C70.3205 67.3094 70.7132 66.3612 70.7132 65.3726C70.7132 64.3839 70.3205 63.4358 69.6214 62.7367C68.9224 62.0376 67.9742 61.6449 66.9856 61.6449M66.9856 69.1002V71.896M66.9856 61.6449V58.8492M72.6349 62.1109L70.2137 63.5087M63.7593 67.2364L61.3363 68.6343M61.3363 62.1109L63.7593 63.5087M70.2137 67.2364L72.6367 68.6343M46.4816 43.0066C46.4816 44.9839 47.267 46.8802 48.6652 48.2783C50.0633 49.6765 51.9596 50.4619 53.9369 50.4619C55.9142 50.4619 57.8105 49.6765 59.2086 48.2783C60.6068 46.8802 61.3922 44.9839 61.3922 43.0066C61.3922 41.0293 60.6068 39.133 59.2086 37.7349C57.8105 36.3367 55.9142 35.5513 53.9369 35.5513C51.9596 35.5513 50.0633 36.3367 48.6652 37.7349C47.267 39.133 46.4816 41.0293 46.4816 43.0066Z" stroke="#DB5125" stroke-width="3" stroke-linecap="round" stroke-linejoin="round"/>
</g>
</svg>
