<svg width="33" height="33" viewBox="0 0 33 33" fill="none" xmlns="http://www.w3.org/2000/svg">
<path d="M16.0969 9.80684C12.1219 9.80684 8.91562 13.0131 8.91562 16.9881C8.91562 20.9631 12.1219 24.1693 16.0969 24.1693C20.0719 24.1693 23.2781 20.9631 23.2781 16.9881C23.2781 13.0131 20.0719 9.80684 16.0969 9.80684ZM16.0969 21.6568C13.5281 21.6568 11.4281 19.5631 11.4281 16.9881C11.4281 14.4131 13.5219 12.3193 16.0969 12.3193C18.6719 12.3193 20.7656 14.4131 20.7656 16.9881C20.7656 19.5631 18.6656 21.6568 16.0969 21.6568ZM25.2469 9.51309C25.2469 10.4443 24.4969 11.1881 23.5719 11.1881C22.6406 11.1881 21.8969 10.4381 21.8969 9.51309C21.8969 8.58809 22.6469 7.83809 23.5719 7.83809C24.4969 7.83809 25.2469 8.58809 25.2469 9.51309ZM30.0031 11.2131C29.8969 8.96934 29.3844 6.98184 27.7406 5.34434C26.1031 3.70684 24.1156 3.19434 21.8719 3.08184C19.5594 2.95059 12.6281 2.95059 10.3156 3.08184C8.07812 3.18809 6.09062 3.70059 4.44688 5.33809C2.80313 6.97559 2.29688 8.96309 2.18437 11.2068C2.05313 13.5193 2.05313 20.4506 2.18437 22.7631C2.29063 25.0068 2.80313 26.9943 4.44688 28.6318C6.09062 30.2693 8.07188 30.7818 10.3156 30.8943C12.6281 31.0256 19.5594 31.0256 21.8719 30.8943C24.1156 30.7881 26.1031 30.2756 27.7406 28.6318C29.3781 26.9943 29.8906 25.0068 30.0031 22.7631C30.1344 20.4506 30.1344 13.5256 30.0031 11.2131ZM27.0156 25.2443C26.5281 26.4693 25.5844 27.4131 24.3531 27.9068C22.5094 28.6381 18.1344 28.4693 16.0969 28.4693C14.0594 28.4693 9.67812 28.6318 7.84062 27.9068C6.61562 27.4193 5.67188 26.4756 5.17813 25.2443C4.44688 23.4006 4.61563 19.0256 4.61563 16.9881C4.61563 14.9506 4.45312 10.5693 5.17813 8.73184C5.66563 7.50684 6.60938 6.56309 7.84062 6.06934C9.68437 5.33809 14.0594 5.50684 16.0969 5.50684C18.1344 5.50684 22.5156 5.34434 24.3531 6.06934C25.5781 6.55684 26.5219 7.50059 27.0156 8.73184C27.7469 10.5756 27.5781 14.9506 27.5781 16.9881C27.5781 19.0256 27.7469 23.4068 27.0156 25.2443Z" fill="white"/>
</svg>
