<svg width="78" height="79" viewBox="0 0 78 79" fill="none" xmlns="http://www.w3.org/2000/svg">
<g id="instagram" filter="url(#filter0_d_982_16423)">
<rect x="15" y="11.75" width="48" height="48" rx="24" fill="#DB5125"/>
<path id="Vector" d="M39.0034 29.5967C35.5974 29.5967 32.8501 32.344 32.8501 35.75C32.8501 39.156 35.5974 41.9033 39.0034 41.9033C42.4094 41.9033 45.1567 39.156 45.1567 35.75C45.1567 32.344 42.4094 29.5967 39.0034 29.5967ZM39.0034 39.7504C36.8024 39.7504 35.003 37.9564 35.003 35.75C35.003 33.5436 36.797 31.7496 39.0034 31.7496C41.2098 31.7496 43.0038 33.5436 43.0038 35.75C43.0038 37.9564 41.2045 39.7504 39.0034 39.7504ZM46.8436 29.345C46.8436 30.1429 46.201 30.7802 45.4084 30.7802C44.6105 30.7802 43.9732 30.1376 43.9732 29.345C43.9732 28.5524 44.6158 27.9098 45.4084 27.9098C46.201 27.9098 46.8436 28.5524 46.8436 29.345ZM50.9191 30.8017C50.828 28.8791 50.3889 27.1761 48.9804 25.773C47.5773 24.3699 45.8743 23.9307 43.9517 23.8343C41.9703 23.7219 36.0312 23.7219 34.0497 23.8343C32.1325 23.9254 30.4295 24.3645 29.021 25.7676C27.6126 27.1707 27.1788 28.8737 27.0824 30.7963C26.9699 32.7778 26.9699 38.7169 27.0824 40.6983C27.1734 42.6209 27.6126 44.3239 29.021 45.727C30.4295 47.1301 32.1271 47.5693 34.0497 47.6657C36.0312 47.7781 41.9703 47.7781 43.9517 47.6657C45.8743 47.5746 47.5773 47.1355 48.9804 45.727C50.3835 44.3239 50.8227 42.6209 50.9191 40.6983C51.0315 38.7169 51.0315 32.7831 50.9191 30.8017ZM48.3592 42.8244C47.9415 43.8741 47.1328 44.6827 46.0778 45.1058C44.498 45.7324 40.7492 45.5878 39.0034 45.5878C37.2576 45.5878 33.5035 45.727 31.929 45.1058C30.8793 44.6881 30.0707 43.8794 29.6476 42.8244C29.021 41.2446 29.1656 37.4958 29.1656 35.75C29.1656 34.0042 29.0264 30.2501 29.6476 28.6756C30.0653 27.6259 30.874 26.8173 31.929 26.3942C33.5088 25.7676 37.2576 25.9122 39.0034 25.9122C40.7492 25.9122 44.5033 25.773 46.0778 26.3942C47.1275 26.8119 47.9361 27.6206 48.3592 28.6756C48.9858 30.2554 48.8412 34.0042 48.8412 35.75C48.8412 37.4958 48.9858 41.2499 48.3592 42.8244Z" fill="white"/>
</g>
<defs>
<filter id="filter0_d_982_16423" x="0" y="0.75" width="78" height="78" filterUnits="userSpaceOnUse" color-interpolation-filters="sRGB">
<feFlood flood-opacity="0" result="BackgroundImageFix"/>
<feColorMatrix in="SourceAlpha" type="matrix" values="0 0 0 0 0 0 0 0 0 0 0 0 0 0 0 0 0 0 127 0" result="hardAlpha"/>
<feOffset dy="4"/>
<feGaussianBlur stdDeviation="7.5"/>
<feComposite in2="hardAlpha" operator="out"/>
<feColorMatrix type="matrix" values="0 0 0 0 0 0 0 0 0 0 0 0 0 0 0 0 0 0 0.25 0"/>
<feBlend mode="normal" in2="BackgroundImageFix" result="effect1_dropShadow_982_16423"/>
<feBlend mode="normal" in="SourceGraphic" in2="effect1_dropShadow_982_16423" result="shape"/>
</filter>
</defs>
</svg>
