<svg width="48" height="49" viewBox="0 0 48 49" fill="none" xmlns="http://www.w3.org/2000/svg">
<rect y="0.75" width="48" height="48" rx="24" fill="#DB5125"/>
<path d="M24.0034 18.5967C20.5974 18.5967 17.8501 21.344 17.8501 24.75C17.8501 28.156 20.5974 30.9033 24.0034 30.9033C27.4094 30.9033 30.1567 28.156 30.1567 24.75C30.1567 21.344 27.4094 18.5967 24.0034 18.5967ZM24.0034 28.7504C21.8024 28.7504 20.003 26.9564 20.003 24.75C20.003 22.5436 21.797 20.7496 24.0034 20.7496C26.2098 20.7496 28.0038 22.5436 28.0038 24.75C28.0038 26.9564 26.2045 28.7504 24.0034 28.7504ZM31.8436 18.345C31.8436 19.1429 31.201 19.7802 30.4084 19.7802C29.6105 19.7802 28.9732 19.1376 28.9732 18.345C28.9732 17.5524 29.6158 16.9098 30.4084 16.9098C31.201 16.9098 31.8436 17.5524 31.8436 18.345ZM35.9191 19.8017C35.828 17.8791 35.3889 16.1761 33.9804 14.773C32.5773 13.3699 30.8743 12.9307 28.9517 12.8343C26.9703 12.7219 21.0312 12.7219 19.0497 12.8343C17.1325 12.9254 15.4295 13.3645 14.021 14.7676C12.6126 16.1707 12.1788 17.8737 12.0824 19.7963C11.9699 21.7778 11.9699 27.7169 12.0824 29.6983C12.1734 31.6209 12.6126 33.3239 14.021 34.727C15.4295 36.1301 17.1271 36.5693 19.0497 36.6657C21.0312 36.7781 26.9703 36.7781 28.9517 36.6657C30.8743 36.5746 32.5773 36.1355 33.9804 34.727C35.3835 33.3239 35.8227 31.6209 35.9191 29.6983C36.0315 27.7169 36.0315 21.7831 35.9191 19.8017ZM33.3592 31.8244C32.9415 32.8741 32.1328 33.6827 31.0778 34.1058C29.498 34.7324 25.7492 34.5878 24.0034 34.5878C22.2576 34.5878 18.5035 34.727 16.929 34.1058C15.8793 33.6881 15.0707 32.8794 14.6476 31.8244C14.021 30.2446 14.1656 26.4958 14.1656 24.75C14.1656 23.0042 14.0264 19.2501 14.6476 17.6756C15.0653 16.6259 15.874 15.8173 16.929 15.3942C18.5088 14.7676 22.2576 14.9122 24.0034 14.9122C25.7492 14.9122 29.5033 14.773 31.0778 15.3942C32.1275 15.8119 32.9361 16.6206 33.3592 17.6756C33.9858 19.2554 33.8412 23.0042 33.8412 24.75C33.8412 26.4958 33.9858 30.2499 33.3592 31.8244Z" fill="white"/>
</svg>
