<svg width="33" height="33" viewBox="0 0 33 33" fill="none" xmlns="http://www.w3.org/2000/svg">
<g clip-path="url(#clip0_1_890)">
<path d="M8.35832 28.9945H2.55332V10.3007H8.35832V28.9945ZM5.4527 7.75074C3.59645 7.75074 2.09082 6.21324 2.09082 4.35699C2.09082 3.46537 2.44502 2.61026 3.07549 1.97979C3.70596 1.34931 4.56107 0.995117 5.4527 0.995117C6.34432 0.995117 7.19943 1.34931 7.8299 1.97979C8.46037 2.61026 8.81457 3.46537 8.81457 4.35699C8.81457 6.21324 7.30832 7.75074 5.4527 7.75074ZM30.0846 28.9945H24.2921V19.8945C24.2921 17.7257 24.2483 14.9445 21.2739 14.9445C18.2558 14.9445 17.7933 17.3007 17.7933 19.7382V28.9945H11.9946V10.3007H17.5621V12.8507H17.6433C18.4183 11.382 20.3114 9.83199 23.1358 9.83199C29.0108 9.83199 30.0908 13.7007 30.0908 18.7257V28.9945H30.0846Z" fill="white"/>
</g>
<defs>
<clipPath id="clip0_1_890">
<rect width="32" height="32" fill="white" transform="translate(0.0908203 0.994385)"/>
</clipPath>
</defs>
</svg>
