<svg width="49" height="49" viewBox="0 0 49 49" fill="none" xmlns="http://www.w3.org/2000/svg">
<circle cx="24.8691" cy="24.819" r="24" fill="#DB5125"/>
<path d="M18.2414 36.819H13.2656V20.7954H18.2414V36.819ZM15.7508 18.6097C14.1597 18.6097 12.8691 17.2918 12.8691 15.7007C12.8691 14.9364 13.1727 14.2034 13.7132 13.663C14.2536 13.1226 14.9865 12.819 15.7508 12.819C16.5151 12.819 17.248 13.1226 17.7885 13.663C18.3289 14.2034 18.6325 14.9364 18.6325 15.7007C18.6325 17.2918 17.3414 18.6097 15.7508 18.6097ZM36.8643 36.819H31.8992V29.0188C31.8992 27.1599 31.8617 24.7759 29.3122 24.7759C26.7252 24.7759 26.3287 26.7956 26.3287 28.8849V36.819H21.3583V20.7954H26.1305V22.9812H26.2002C26.8645 21.7222 28.4872 20.3936 30.9081 20.3936C35.9439 20.3936 36.8697 23.7098 36.8697 28.017V36.819H36.8643Z" fill="white"/>
</svg>
