<svg width="78" height="79" viewBox="0 0 78 79" fill="none" xmlns="http://www.w3.org/2000/svg">
<g id="linkedin-in" filter="url(#filter0_d_982_16427)">
<rect x="15" y="11.75" width="48" height="48" rx="24" fill="#DB5125"/>
<path id="Vector" d="M32.3723 47.75H27.3964V31.7264H32.3723V47.75ZM29.8817 29.5407C28.2906 29.5407 27 28.2228 27 26.6317C27 25.8674 27.3036 25.1344 27.844 24.594C28.3844 24.0536 29.1174 23.75 29.8817 23.75C30.6459 23.75 31.3789 24.0536 31.9193 24.594C32.4597 25.1344 32.7633 25.8674 32.7633 26.6317C32.7633 28.2228 31.4722 29.5407 29.8817 29.5407ZM50.9952 47.75H46.0301V39.9498C46.0301 38.0909 45.9926 35.7069 43.443 35.7069C40.856 35.7069 40.4596 37.7266 40.4596 39.8159V47.75H35.4891V31.7264H40.2614V33.9122H40.331C40.9953 32.6532 42.618 31.3246 45.039 31.3246C50.0748 31.3246 51.0005 34.6408 51.0005 38.948V47.75H50.9952Z" fill="white"/>
</g>
<defs>
<filter id="filter0_d_982_16427" x="0" y="0.75" width="78" height="78" filterUnits="userSpaceOnUse" color-interpolation-filters="sRGB">
<feFlood flood-opacity="0" result="BackgroundImageFix"/>
<feColorMatrix in="SourceAlpha" type="matrix" values="0 0 0 0 0 0 0 0 0 0 0 0 0 0 0 0 0 0 127 0" result="hardAlpha"/>
<feOffset dy="4"/>
<feGaussianBlur stdDeviation="7.5"/>
<feComposite in2="hardAlpha" operator="out"/>
<feColorMatrix type="matrix" values="0 0 0 0 0 0 0 0 0 0 0 0 0 0 0 0 0 0 0.25 0"/>
<feBlend mode="normal" in2="BackgroundImageFix" result="effect1_dropShadow_982_16427"/>
<feBlend mode="normal" in="SourceGraphic" in2="effect1_dropShadow_982_16427" result="shape"/>
</filter>
</defs>
</svg>
