<svg width="90" height="84" viewBox="0 0 90 84" fill="none" xmlns="http://www.w3.org/2000/svg">
<path d="M51.6264 81.75V48.625C51.6264 47.7465 51.9754 46.9039 52.5966 46.2827C53.2179 45.6615 54.0604 45.3125 54.9389 45.3125H68.1889C69.0675 45.3125 69.91 45.6615 70.5312 46.2827C71.1524 46.9039 71.5014 47.7465 71.5014 48.625V81.75M51.6264 81.75H2.42477M51.6264 81.75H71.5014M71.5014 81.75H87.5781M81.4389 81.75V30.2914M81.4389 30.2914C78.7893 31.82 75.6925 32.3851 72.6738 31.8908C69.6551 31.3966 66.9002 29.8734 64.8764 27.5796C62.4473 30.3267 58.8963 32.0625 54.9389 32.0625C53.0587 32.0643 51.1996 31.665 49.486 30.8912C47.7723 30.1174 46.2434 28.9869 45.0014 27.5752C42.5723 30.3268 39.0213 32.0625 35.0639 32.0625C33.1837 32.0643 31.3246 31.665 29.611 30.8912C27.8973 30.1174 26.3684 28.9869 25.1264 27.5752C23.1032 29.8697 20.3487 31.3937 17.3299 31.8888C14.3111 32.3839 11.214 31.8195 8.56393 30.2914M81.4389 30.2914C83.1994 29.2752 84.7024 27.8675 85.8318 26.1773C86.9611 24.4872 87.6864 22.5599 87.9515 20.5445C88.2167 18.5291 88.0146 16.4798 87.3609 14.555C86.7072 12.6303 85.6194 10.8818 84.1817 9.44475L78.9259 4.19333C77.6846 2.95055 76.0007 2.25155 74.2442 2.25H15.7543C13.9984 2.25037 12.3146 2.94775 11.0726 4.18892L5.82118 9.44475C4.38681 10.8834 3.30198 12.6323 2.65032 14.5565C1.99866 16.4807 1.79758 18.5288 2.06258 20.543C2.32759 22.5572 3.05159 24.4837 4.17879 26.1738C5.30598 27.864 6.80625 29.2727 8.56393 30.2914M8.56393 81.75V30.2914M21.8139 68.5H38.3764C39.255 68.5 40.0975 68.151 40.7187 67.5298C41.3399 66.9086 41.6889 66.066 41.6889 65.1875V48.625C41.6889 47.7465 41.3399 46.9039 40.7187 46.2827C40.0975 45.6615 39.255 45.3125 38.3764 45.3125H21.8139C20.9354 45.3125 20.0929 45.6615 19.4716 46.2827C18.8504 46.9039 18.5014 47.7465 18.5014 48.625V65.1875C18.5014 67.016 19.9854 68.5 21.8139 68.5Z" stroke="#DB5125" stroke-width="3" stroke-linecap="round" stroke-linejoin="round"/>
</svg>
