<svg width="110" height="110" viewBox="0 0 110 110" fill="none" xmlns="http://www.w3.org/2000/svg">
<g id="heroicons:computer-desktop">
<g id="Group 78">
<path id="Vector" d="M37.7245 87.2074V91.3085C37.7247 92.9135 37.4087 94.5029 36.7944 95.9857C36.1802 97.4685 35.2798 98.8158 34.1447 99.9505L31.6157 102.48H68.2689L65.7398 99.9505C64.6047 98.8158 63.7043 97.4685 63.0901 95.9857C62.4758 94.5029 62.1598 92.9135 62.16 91.3085V87.2074M86.5955 38.3365V78.0441C86.5955 80.4744 85.63 82.8051 83.9116 84.5236C82.1931 86.242 79.8624 87.2074 77.4322 87.2074H22.4524C20.0221 87.2074 17.6914 86.242 15.9729 84.5236C14.2545 82.8051 13.2891 80.4744 13.2891 78.0441V38.3365M86.5955 38.3365C86.5955 35.9063 85.63 33.5755 83.9116 31.8571C82.1931 30.1386 79.8624 29.1732 77.4322 29.1732H22.4524C20.0221 29.1732 17.6914 30.1386 15.9729 31.8571C14.2545 33.5755 13.2891 35.9063 13.2891 38.3365M86.5955 38.3365V65.8264M13.2891 38.3365V65.8264" stroke="#DB5125" stroke-width="3" stroke-linecap="round" stroke-linejoin="round"/>
<g id="&#240;&#159;&#166;&#134; icon &#34;settings&#34;">
<path id="Vector_2" d="M50.0338 60.0776C52.171 60.0776 53.9035 58.345 53.9035 56.2078C53.9035 54.0707 52.171 52.3381 50.0338 52.3381C47.8966 52.3381 46.1641 54.0707 46.1641 56.2078C46.1641 58.345 47.8966 60.0776 50.0338 60.0776Z" stroke="#DB5125" stroke-width="3" stroke-linecap="round" stroke-linejoin="round"/>
<path id="Vector_3" d="M59.578 60.0776C59.4063 60.4666 59.355 60.8982 59.4309 61.3166C59.5068 61.7351 59.7063 62.1212 60.0036 62.4252L60.081 62.5026C60.3209 62.7422 60.5112 63.0267 60.641 63.3399C60.7708 63.6531 60.8377 63.9888 60.8377 64.3278C60.8377 64.6668 60.7708 65.0025 60.641 65.3157C60.5112 65.6289 60.3209 65.9134 60.081 66.153C59.8414 66.3929 59.5569 66.5832 59.2437 66.713C58.9305 66.8428 58.5948 66.9096 58.2558 66.9096C57.9168 66.9096 57.5811 66.8428 57.2679 66.713C56.9547 66.5832 56.6702 66.3929 56.4306 66.153L56.3532 66.0756C56.0492 65.7782 55.6631 65.5788 55.2447 65.5029C54.8262 65.427 54.3946 65.4782 54.0056 65.6499C53.6241 65.8135 53.2987 66.085 53.0695 66.431C52.8403 66.7771 52.7173 67.1826 52.7157 67.5977V67.817C52.7157 68.5012 52.4439 69.1574 51.9601 69.6412C51.4763 70.125 50.8201 70.3968 50.1359 70.3968C49.4517 70.3968 48.7955 70.125 48.3117 69.6412C47.8279 69.1574 47.5561 68.5012 47.5561 67.817V67.7009C47.5461 67.2739 47.4079 66.8599 47.1594 66.5125C46.911 66.1651 46.5638 65.9006 46.163 65.7531C45.7739 65.5814 45.3423 65.5302 44.9239 65.6061C44.5055 65.682 44.1194 65.8814 43.8154 66.1788L43.738 66.2562C43.4984 66.4961 43.2138 66.6863 42.9007 66.8162C42.5875 66.946 42.2518 67.0128 41.9127 67.0128C41.5737 67.0128 41.238 66.946 40.9248 66.8162C40.6116 66.6863 40.3271 66.4961 40.0875 66.2562C39.8477 66.0166 39.6574 65.7321 39.5276 65.4189C39.3977 65.1057 39.3309 64.77 39.3309 64.431C39.3309 64.092 39.3977 63.7563 39.5276 63.4431C39.6574 63.1299 39.8477 62.8454 40.0875 62.6058L40.1649 62.5284C40.4623 62.2244 40.6618 61.8383 40.7376 61.4198C40.8135 61.0014 40.7623 60.5698 40.5906 60.1808C40.4271 59.7992 40.1556 59.4739 39.8095 59.2447C39.4634 59.0155 39.0579 58.8925 38.6428 58.8909H38.4236C37.7393 58.8909 37.0832 58.6191 36.5994 58.1352C36.1156 57.6514 35.8438 56.9953 35.8438 56.311C35.8438 55.6268 36.1156 54.9707 36.5994 54.4868C37.0832 54.003 37.7393 53.7312 38.4236 53.7312H38.5396C38.9666 53.7213 39.3807 53.5831 39.728 53.3346C40.0754 53.0862 40.34 52.739 40.4874 52.3381C40.6591 51.9491 40.7103 51.5175 40.6345 51.0991C40.5586 50.6806 40.3591 50.2945 40.0617 49.9905L39.9843 49.9131C39.7445 49.6735 39.5542 49.389 39.4244 49.0758C39.2945 48.7626 39.2277 48.4269 39.2277 48.0879C39.2277 47.7489 39.2945 47.4132 39.4244 47.1C39.5542 46.7868 39.7445 46.5023 39.9843 46.2627C40.2239 46.0228 40.5085 45.8326 40.8216 45.7027C41.1348 45.5729 41.4705 45.5061 41.8096 45.5061C42.1486 45.5061 42.4843 45.5729 42.7975 45.7027C43.1106 45.8326 43.3952 46.0228 43.6348 46.2627L43.7122 46.3401C44.0162 46.6375 44.4023 46.8369 44.8207 46.9128C45.2392 46.9887 45.6707 46.9375 46.0598 46.7658H46.163C46.5445 46.6023 46.8699 46.3308 47.099 45.9847C47.3282 45.6386 47.4512 45.2331 47.4529 44.818V44.5987C47.4529 43.9145 47.7247 43.2583 48.2085 42.7745C48.6923 42.2907 49.3485 42.0189 50.0327 42.0189C50.7169 42.0189 51.3731 42.2907 51.8569 42.7745C52.3407 43.2583 52.6125 43.9145 52.6125 44.5987V44.7148C52.6141 45.1299 52.7371 45.5354 52.9663 45.8815C53.1955 46.2276 53.5209 46.4991 53.9024 46.6626C54.2914 46.8343 54.723 46.8855 55.1415 46.8096C55.5599 46.7338 55.946 46.5343 56.25 46.2369L56.3274 46.1595C56.567 45.9196 56.8515 45.7294 57.1647 45.5995C57.4779 45.4697 57.8136 45.4029 58.1526 45.4029C58.4917 45.4029 58.8274 45.4697 59.1405 45.5995C59.4537 45.7294 59.7382 45.9196 59.9778 46.1595C60.2177 46.3991 60.408 46.6836 60.5378 46.9968C60.6676 47.31 60.7345 47.6457 60.7345 47.9847C60.7345 48.3237 60.6676 48.6595 60.5378 48.9726C60.408 49.2858 60.2177 49.5703 59.9778 49.8099L59.9004 49.8873C59.6031 50.1913 59.4036 50.5774 59.3277 50.9959C59.2519 51.4143 59.3031 51.8459 59.4748 52.235V52.3381C59.6383 52.7197 59.9098 53.045 60.2559 53.2742C60.6019 53.5034 61.0075 53.6264 61.4225 53.628H61.6418C62.326 53.628 62.9822 53.8999 63.466 54.3837C63.9498 54.8675 64.2216 55.5236 64.2216 56.2079C64.2216 56.8921 63.9498 57.5482 63.466 58.0321C62.9822 58.5159 62.326 58.7877 61.6418 58.7877H61.5257C61.1106 58.7893 60.7051 58.9123 60.359 59.1415C60.013 59.3707 59.7415 59.6961 59.578 60.0776Z" stroke="#DB5125" stroke-width="3" stroke-linecap="round" stroke-linejoin="round"/>
</g>
<path id="Vector_4" d="M48.8438 23.1941C49.173 19.9495 50.4057 16.8623 52.4019 14.2833C54.398 11.7042 57.0776 9.73686 60.136 8.60463C63.1944 7.47241 66.5091 7.22075 69.7034 7.87826C72.8977 8.53577 75.8435 10.0761 78.2062 12.3242C80.5688 14.5722 82.2535 17.4379 83.0688 20.5957H85.8146C88.7045 20.5957 91.476 21.7436 93.5194 23.7871C95.5628 25.8305 96.7108 28.602 96.7108 31.4918C96.7108 34.3817 95.5628 37.1531 93.5194 39.1966" stroke="#DB5125" stroke-width="3" stroke-linecap="round" stroke-linejoin="round"/>
</g>
</g>
</svg>
