<svg id="eNwyUnZQaWp1" xmlns="http://www.w3.org/2000/svg" xmlns:xlink="http://www.w3.org/1999/xlink" viewBox="0 0 125 126" shape-rendering="geometricPrecision" text-rendering="geometricPrecision">
<style><![CDATA[
#eNwyUnZQaWp2_tr {animation: eNwyUnZQaWp2_tr__tr 8000ms linear infinite normal forwards}@keyframes eNwyUnZQaWp2_tr__tr { 0% {transform: translate(62.0692px,62.474883px) rotate(0deg)} 100% {transform: translate(62.0692px,62.474883px) rotate(360deg)}} #eNwyUnZQaWp26_to {animation: eNwyUnZQaWp26_to__to 8000ms linear infinite normal forwards}@keyframes eNwyUnZQaWp26_to__to { 0% {transform: translate(62.5px,49.766214px);animation-timing-function: cubic-bezier(0.25,1,0.25,1)} 12.5% {transform: translate(62.5px,76.766214px);animation-timing-function: cubic-bezier(0.25,1,0.25,1)} 25% {transform: translate(62.5px,48.766214px);animation-timing-function: cubic-bezier(0.25,1,0.25,1)} 37.5% {transform: translate(62.5px,76.766214px);animation-timing-function: cubic-bezier(0.25,1,0.25,1)} 50% {transform: translate(62.5px,48.766214px);animation-timing-function: cubic-bezier(0.25,1,0.25,1)} 62.5% {transform: translate(62.5px,77.766214px);animation-timing-function: cubic-bezier(0.25,1,0.25,1)} 75% {transform: translate(62.5px,47.766214px);animation-timing-function: cubic-bezier(0.25,1,0.25,1)} 87.5% {transform: translate(62.5px,77.766214px);animation-timing-function: cubic-bezier(0.25,1,0.25,1)} 100% {transform: translate(62.5px,48.766214px)}}
]]></style>
<g id="eNwyUnZQaWp2_tr" transform="translate(62.0692,62.474883) rotate(0)"><g transform="translate(-62.069199,-62.474883)"><path d="M54.2025,17.4194c-.2303.0348-.4407-.0168-.631-.1546-.1907-.1407-.3037-.3277-.3389-.5608-.0348-.2304.0184-.4395.1596-.6275.1407-.1908.3262-.3035.5566-.3383s.4409.0181.6316.1588c.1903.1379.3029.322.3376.5524.0234.1545.0054.3023-.0537.4434-.0568.1379-.1426.2543-.2576.3492s-.2497.1541-.4042.1774Z"/><path d="M34.8963,20.7014l1.8732,3.4051-1.1161.6146-3.155-5.735l1.0714-.5898.5135.9334.0709-.0391c-.0352-.3762.0372-.7339.2171-1.0729.1824-.3404.4888-.6291.9194-.8662.3907-.2151.7781-.3213,1.1621-.3187.3827.0001.7432.1161,1.0816.3482s.6377.5845.8979,1.0574l2.0067,3.6478-1.1161.6146-1.9328-3.5134c-.2287-.4157-.5157-.6809-.8609-.7957-.3466-.1173-.709-.0718-1.0873.1365-.2588.1425-.4582.3252-.5982.5482-.1375.2216-.2051.4729-.2029.7539.0032.2771.0884.5675.2555.8711Z"/><path d="M23.5843,36.9501l-6.218-2.8071.8582-.9987l4.4804,2.1614.0417-.0484-2.8057-4.1104.8582-.9986l4.4614,2.1507.0417-.0485-2.7979-4.0867.8582-.9987l3.7101,5.7256-.8471.9857-4.4496-2.073-.0638.0743l2.7165,4.0898-.8443.9826Z"/><path d="M18.3733,48.8715c-.2111.5762-.5273,1.0306-.9486,1.3633-.4214.3327-.913.5308-1.4747.5941-.5618.0634-1.1601-.0212-1.7949-.2539-.6375-.2337-1.1515-.5568-1.542-.9692s-.6391-.8818-.7459-1.4081c-.1068-.5262-.0546-1.0775.1564-1.6537s.5273-1.0306.9486-1.3633.9143-.5303,1.4787-.5927s1.1654.0233,1.8029.2569c.6348.2327,1.1462.5548,1.534.9663s.6351.8803.7419,1.4066.0546,1.0775-.1564,1.6537Zm-1.0028-.3721c.1368-.3735.1514-.7191.0439-1.0369s-.3038-.5955-.5889-.8331c-.2841-.2403-.6235-.4328-1.0183-.5775-.3921-.1437-.7742-.2157-1.1462-.2159-.3738-.0039-.7056.0802-.9956.2523s-.5033.4449-.64.8184c-.1378.3761-.1521.7249-.0429,1.0463.1102.3187.3086.5987.5954.84.2851.2377.6237.4283,1.0158.5721.3948.1447.7777.2185,1.1488.2214.372.0002.7017-.0863.989-.2593.2882-.1758.5012-.4517.639-.8278Z"/><path d="M16.2587,63.3055c-.0227.528-.1778.9933-.4652,1.3961-.2902.3998-.6915.7067-1.204.9207-.5153.211-1.1262.3012-1.833.2708s-1.3062-.1742-1.7984-.4314c-.4922-.26-.8627-.603-1.11169-1.0289-.24897-.4258-.36217-.9013-.33959-1.4264.01746-.4059.09961-.7294.24647-.9704.14414-.244.30851-.4303.49321-.5589.1848-.1314.347-.2324.4865-.3032l.0033-.0766-3.2399-.1395.05475-1.273l8.71915.3753-.0534,1.2432-1.0175-.0438-.0046.1065c.1358.0826.2899.2001.4625.3526.1727.1496.3204.3521.4431.6076.1226.2555.1754.582.1583.9793Zm-1.0735-.3277c.0157-.3661-.0675-.6796-.2496-.9406-.1849-.2638-.4476-.4685-.7883-.614-.3405-.1483-.7407-.2323-1.2005-.2521-.4541-.0196-.8543.0286-1.2005.1445s-.6198.2961-.8208.5405-.3096.5525-.3256.9244c-.0165.3831.0692.7067.2568.9707s.4505.4687.7883.614c.3379.1425.7226.2231,1.154.2416.4371.0188.8331-.0295,1.1878-.145.3547-.1156.6397-.2967.8551-.5433.2126-.2496.327-.5632.3433-.9407Z"/><path d="M10.144,79.4027l8.3139-2.6542.3872,1.2139-8.3139,2.6541-.3872-1.2138Z"/><path d="M12.6392,85.7236l7.9196-3.6667.535,1.1564L13.1742,86.88l-.535-1.1564Z"/><path d="M26.8956,91.8642c.3697.4897.5802,1.0019.6314,1.5365s-.0488,1.0552-.2999,1.5618-.6464.9638-1.1859,1.3714c-.5417.4093-1.0916.6663-1.6497.7711s-1.0871.0594-1.5871-.1361-.9348-.5381-1.3046-1.0278c-.3697-.4898-.5802-1.0019-.6314-1.5365s.0499-1.0561.3033-1.5644.651-.9672,1.1927-1.3765c.5395-.4076,1.0871-.6629,1.6429-.766s1.0837-.0568,1.5837.1386c.5.1955.9349.5382,1.3046,1.0279Zm-.856.6414c-.2396-.3174-.522-.5171-.8473-.5989-.3252-.0819-.6648-.0674-1.0189.0435-.3559.1086-.7015.2897-1.037.5431-.3332.2518-.6007.534-.8024.8467-.2058.3121-.3149.6367-.3274.9737-.0126.3371.101.6643.3407.9817.2413.3197.5266.5208.8558.6032.3275.0801.6702.065,1.0283-.0453.3542-.1109.6978-.2922,1.031-.544.3355-.2534.6049-.5354.8084-.8458.2018-.3127.3078-.6367.3181-.972.0085-.3376-.1079-.6662-.3493-.9859Z"/><path d="M35.5676,100.098l-4.0973,5.104-.9601-.771.6508-.811-.0531-.043c-.3135.2-.6508.285-1.0118.253-.3651-.031-.6971-.166-.9961-.406-.062-.05-.1333-.111-.2139-.183-.0828-.074-.1459-.134-.1893-.179l.7629-.951c.031.043.0921.112.1833.207.0894.098.1851.187.2869.269.2348.189.4841.307.748.355.2598.049.5132.028.76-.062.245-.087.4564-.242.6342-.463l2.5022-3.1172.9933.7982Z"/><path d="M44.3535,104.761c.5737.268,1.0068.63,1.2994,1.084.2888.455.436.965.4416,1.529.0057.564-.1306,1.143-.4088,1.738-.2818.602-.6437,1.08-1.0857,1.434-.4431.358-.9313.57-1.4646.637s-1.079-.03-1.6373-.292c-.4502-.211-.8124-.483-1.0865-.815-.2754-.33-.4513-.694-.5277-1.094-.079-.401-.0457-.811.0998-1.229l1.123.526c-.0684.307-.0389.613.0884.917.1248.303.3711.541.739.713.3215.151.643.198.9643.142.3175-.056.6161-.208.8956-.456.2783-.246.5162-.58.7137-1.002.2023-.433.3114-.836.3271-1.212.0157-.375-.0557-.705-.2143-.99-.1611-.285-.405-.505-.7318-.658-.2186-.102-.4354-.155-.6502-.158-.2187-.002-.424.044-.6159.139-.1946.094-.3663.237-.5151.427l-1.123-.526c.2207-.364.5056-.648.8549-.851s.7392-.309,1.1698-.318c.428-.01.8761.095,1.3443.315Z"/><path d="M53.3206,112.614l1.1727-.016c.024.153.0771.304.1595.453.0795.148.1994.279.3596.391s.3706.19.6314.232c.3561.058.6663.026.9307-.095.2638-.118.416-.302.4566-.551.035-.216-.0166-.403-.155-.561-.1385-.158-.3789-.308-.7213-.45l-.9881-.402c-.5721-.234-.9808-.518-1.2259-.851-.2452-.334-.3306-.729-.2563-1.186.0628-.387.231-.714.5046-.98.2702-.264.6184-.449,1.0443-.556.4232-.106.8956-.117,1.4171-.033.7235.118,1.2887.368,1.6956.751.4065.386.6152.873.626,1.462l-1.2457-.013c-.0242-.329-.1409-.594-.35-.795-.2096-.198-.5036-.328-.8822-.39-.4122-.067-.7555-.035-1.0301.096-.275.134-.4328.326-.4733.575-.0328.202.0153.384.1444.546.1263.162.338.303.635.423l1.0547.417c.5805.236.9908.527,1.2309.874.2373.347.3186.75.2438,1.21-.0619.381-.2227.697-.4823.949-.2596.251-.5902.426-.9919.525-.4022.102-.8458.113-1.3309.034-.6983-.114-1.2233-.354-1.575-.722-.3523-.366-.5519-.811-.5989-1.337Z"/><path d="M71.1171,107.445c.2293-.04.441.005.6349.138.1944.136.3124.32.3538.552.0409.229-.0067.44-.1427.631-.1356.195-.3181.312-.5474.353s-.4412-.006-.6356-.142c-.194-.132-.3114-.313-.3523-.543-.0275-.154-.0135-.302.0418-.444.0531-.14.1358-.258.2482-.356s.2455-.161.3993-.189Z"/><path d="M90.3287,103.648l-1.9636-3.354l1.0993-.644l3.3072,5.648-1.0552.619-.5383-.92-.0698.041c.0452.376-.0176.735-.1884,1.079-.1732.345-.4718.642-.8958.89-.3848.226-.7692.342-1.1532.35-.3825.01-.7461-.096-1.0905-.319-.3445-.223-.6531-.567-.9259-1.033l-2.1036-3.593l1.0993-.644l2.0261,3.46c.2398.41.5337.667.8819.773.3496.108.7107.052,1.0832-.166.255-.149.4494-.337.5833-.564.1315-.225.1924-.478.1827-.759-.0107-.277-.1036-.565-.2787-.864Z"/><path d="M101.202,87.1023l6.291,2.6397-.831,1.0213-4.537-2.0408-.04.0496l2.914,4.0338-.831,1.0212-4.5172-2.0306-.0404.0496l2.9066,4.0104-.832,1.0213-3.8615-5.6242.8204-1.0081l4.5031,1.9533.062-.076-2.825-4.0157.818-1.0048Z"/><path d="M106.092,75.0458c.196-.5817.5-1.0444.912-1.3883.412-.3438.899-.5549,1.458-.6333.56-.0784,1.161-.0098,1.801.2058.644.2166,1.166.5257,1.568.9276.401.4018.662.8643.783,1.3876s.083,1.0756-.112,1.6573c-.196.5816-.5,1.0444-.912,1.3882-.412.3439-.9.5545-1.462.632-.563.0775-1.166.008-1.809-.2086-.641-.2156-1.161-.5239-1.56-.9248-.398-.4009-.658-.863-.779-1.3862-.121-.5233-.083-1.0757.112-1.6573Zm1.013.3451c-.127.377-.132.7229-.017,1.0377.116.3147.32.5871.611.817.291.2326.635.416,1.034.5501.396.1331.78.1949,1.151.1851.374-.0061.704-.0991.989-.2789s.491-.4581.618-.8351c.128-.3797.132-.7287.015-1.0471-.119-.3157-.325-.5903-.618-.8238-.291-.23-.635-.4115-1.031-.5447-.398-.1341-.783-.1976-1.154-.1905-.372.0097-.699.1049-.982.2856-.283.1834-.489.4649-.616.8446Z"/><path d="M107.82,60.5603c.009-.5283.151-.9977.428-1.408.279-.4074.672-.725,1.179-.9526.509-.2247,1.118-.3313,1.825-.3198s1.31.1392,1.809.3832c.499.2467.879.5796,1.139.9987s.386.8913.378,1.4168c-.007.4062-.08.7318-.221.9767-.137.2478-.297.4384-.478.5718-.181.1363-.341.2417-.478.3162l-.001.0767l3.242.0527-.021,1.2739-8.726-.1417.02-1.2442l1.019.0165.002-.1065c-.138-.0789-.296-.1923-.472-.3401-.177-.1449-.33-.3434-.459-.5956-.13-.2521-.191-.577-.185-.9747Zm1.082.2989c-.006.3664.086.6776.275.9335.192.2589.46.4564.804.5927.344.1392.747.2125,1.207.22.454.0073.853-.0515,1.196-.1767.343-.1251.612-.3125.806-.5622.195-.2497.295-.5607.301-.9328.006-.3834-.088-.7046-.283-.9635-.194-.2589-.463-.4564-.804-.5927-.342-.1334-.729-.2036-1.16-.2106-.438-.0071-.832.0518-1.184.1768-.351.125-.631.3136-.84.566-.206.2552-.312.5717-.318.9495Z"/><path d="M113.502,44.3052l-8.24,2.8757-.419-1.2031l8.24-2.8757.419,1.2031Z"/><path d="M110.839,38.0533l-7.819,3.8773-.566-1.1417l7.819-3.8773.566,1.1417Z"/><path d="M96.4234,32.2965c-.3827-.4796-.6068-.986-.6723-1.519s.0205-1.0561.258-1.5693.6204-.9807,1.1487-1.4026c.5306-.4237,1.0735-.6953,1.6285-.815.5551-.1197,1.0851-.0885,1.5897.0936.506.182.949.5129,1.332.9925.383.4797.607.986.672,1.5191.066.533-.021,1.057-.261,1.5719s-.625.9843-1.155,1.4079c-.529.4219-1.0693.6918-1.6222.8097s-1.0818.0858-1.5868-.0962-.9489-.5129-1.3316-.9926Zm.8385-.664c.248.3109.5357.5029.863.576s.6664.0495,1.0174-.0708c.3528-.1181.6935-.3083,1.0217-.5707.327-.2606.587-.5498.78-.8678.197-.3175.298-.6449.301-.9822.004-.3372-.119-.6613-.367-.9722-.25-.3131-.54-.5065-.871-.58-.3299-.0714-.6722-.0471-1.0272.0727-.351.1204-.6897.3108-1.016.5714-.3286.2624-.5904.5514-.7855.8672-.1933.3179-.2906.6446-.2919.9801.0005.3377.1256.6631.3755.9763Z"/><path d="M87.5342,24.2979l3.9593-5.2122.9804.7453-.6289.828.0543.0412c.308-.2083.6429-.3016,1.0047-.28.3657.0211.7012.1477,1.0065.3798.0633.0482.1363.1072.2188.177.0847.0716.1494.1297.194.1743l-.7372.9705c-.0321-.0423-.095-.1097-.1888-.2024-.092-.0949-.19-.1819-.294-.261-.2397-.1822-.4921-.2938-.7572-.3347-.261-.0415-.5137-.0141-.758.0821-.2426.0939-.4498.254-.6217.4802l-2.4178,3.183-1.0144-.7711Z"/><path d="M78.6268,19.8719c-.5807-.2533-1.0234-.6029-1.3279-1.0488-.3009-.4473-.4617-.953-.4825-1.5168s.1-1.1466.3622-1.7482c.2656-.6094.6146-1.0972,1.0469-1.4634.4335-.3688.9159-.5939,1.4472-.6752.5312-.0813,1.0794.0013,1.6445.2478.4557.1988.825.4606,1.1079.7855.2841.3223.4697.6822.5568,1.0797.0896.3987.0673.8089-.0669,1.2307l-1.1367-.4958c.0601-.3085.0225-.6132-.1129-.914-.1328-.2997-.3854-.5307-.7578-.6931-.3255-.142-.6481-.1805-.9678-.1153-.3159.0636-.6103.2234-.883.4795-.2716.2535-.5005.5937-.6867,1.0208-.1907.4376-.2889.8441-.2945,1.2198-.0057.3756.0745.7035.2406.9836.1687.2813.4185.4941.7492.6383.2213.0966.4394.1437.6542.1413.2186-.0038.4226-.0559.612-.1561.1919-.0992.3598-.246.5035-.4406l1.1366.4958c-.2108.3699-.4881.6612-.8318.8738s-.7307.3291-1.1609.3491c-.4276.0212-.8783-.0716-1.3522-.2784Z"/><path d="M69.4528,12.2613l-1.1718.0479c-.0281-.1529-.0853-.3025-.1716-.4489-.0834-.146-.2067-.2731-.3699-.3811-.1631-.1081-.3756-.1798-.6374-.2153-.3576-.0483-.6668-.0084-.9278.1197-.2606.1253-.4078.3132-.4417.5638-.0293.2167.0274.4022.1699.5562.1426.154.387.2974.7331.4302l.9985.3759c.5782.2186.9943.4913,1.2482.8181.254.3268.35.7196.288,1.1785-.0525.3885-.2119.7196-.4782.9931-.2631.2712-.6062.4656-1.0292.5833-.4201.118-.892.1417-1.4157.0708-.7263-.0982-1.298-.3332-1.715-.7049-.4167-.3746-.6383-.8561-.6649-1.4445l1.2456-.0207c.033.3284.1567.5902.3711.7855.2148.1924.5123.3144.8923.3658.4139.0559.7563.0148,1.0272-.1234.2714-.1411.4239-.3369.4578-.5874.0274-.2027-.0256-.3833-.159-.5419-.1306-.1581-.3459-.2933-.6461-.4055l-1.0654-.3892c-.5867-.2199-1.0046-.5-1.2539-.8404-.2464-.3401-.3385-.741-.2761-1.2027.0518-.3829.204-.7035.4568-.9617s.5786-.4421.9775-.5515c.3993-.1123.8425-.1355,1.3296-.0696.701.0948,1.2322.3214,1.5937.6799.3619.3557.5733.7957.6344,1.32Z"/></g></g><rect width="30.390853" height="55.800054" rx="15.2" ry="15.2" transform="translate(47.304574 35.099973)" fill="none" stroke="#000" stroke-width="2"/><g id="eNwyUnZQaWp26_to" transform="translate(62.5,49.766214)"><ellipse rx="9.559652" ry="9.559652" transform="translate(0,0)" fill="#db5125" stroke-width="0"/></g></svg>
