<svg width="103" height="95" viewBox="0 0 103 95" fill="none" xmlns="http://www.w3.org/2000/svg">
<path d="M9.61538 2V58.875C9.61538 61.8918 10.8189 64.7851 12.9611 66.9183C15.1034 69.0516 18.0089 70.25 21.0385 70.25H32.4615M9.61538 2H2M9.61538 2H93.3846M32.4615 70.25H70.5385M32.4615 70.25L27.3846 85.4167M93.3846 2H101M93.3846 2V58.875C93.3846 61.8918 92.1811 64.7851 90.0389 66.9183C87.8966 69.0516 84.9911 70.25 81.9615 70.25H70.5385M70.5385 70.25L75.6154 85.4167M27.3846 85.4167H75.6154M27.3846 85.4167L24.8462 93M75.6154 85.4167L78.1538 93M36.2692 43.7083V51.2917M51.5 32.3333V51.2917M66.7308 20.9583V51.2917" stroke="#DB5125" stroke-width="3" stroke-linecap="round" stroke-linejoin="round"/>
</svg>
