<svg width="100" height="101" viewBox="0 0 100 101" fill="none" xmlns="http://www.w3.org/2000/svg">
<g id="streamline:web">
<g id="Group">
<path id="Vector" d="M96.4275 50.9294C96.4275 63.243 91.5359 75.0523 82.8288 83.7594C74.1218 92.4664 62.3125 97.358 49.9989 97.358C37.6853 97.358 25.876 92.4664 17.1689 83.7594C8.46188 75.0523 3.57031 63.243 3.57031 50.9294M96.4275 50.9294C96.4275 38.6158 91.5359 26.8065 82.8288 18.0995C74.1218 9.39242 62.3125 4.50085 49.9989 4.50085C37.6853 4.50085 25.876 9.39242 17.1689 18.0995C8.46188 26.8065 3.57031 38.6158 3.57031 50.9294M96.4275 50.9294H3.57031" stroke="#DB5125" stroke-width="3" stroke-linecap="round" stroke-linejoin="round"/>
<path id="Vector_2" d="M67.8549 50.9294C66.9778 67.9079 60.7241 84.1676 49.9978 97.358C39.2715 84.1676 33.0178 67.9079 32.1406 50.9294C33.0178 33.9509 39.2715 17.6912 49.9978 4.50085C60.7241 17.6912 66.9778 33.9509 67.8549 50.9294Z" stroke="#DB5125" stroke-width="3" stroke-linecap="round" stroke-linejoin="round"/>
</g>
</g>
</svg>
