<svg width="72" height="82" viewBox="0 0 72 82" fill="none" xmlns="http://www.w3.org/2000/svg">
<path d="M9.59758 22.1875C9.59758 16.3859 11.8792 10.8219 15.9405 6.71954C20.0019 2.61718 25.5102 0.3125 31.2538 0.3125C36.9974 0.3125 42.5058 2.61718 46.5671 6.71954C50.6284 10.8219 52.9101 16.3859 52.9101 22.1875C52.9101 22.6019 52.7471 22.9993 52.457 23.2924C52.1669 23.5854 51.7735 23.75 51.3632 23.75C50.9529 23.75 50.5595 23.5854 50.2694 23.2924C49.9793 22.9993 49.8163 22.6019 49.8163 22.1875C49.8163 17.2147 47.8606 12.4456 44.3795 8.92925C40.8984 5.41294 36.1769 3.4375 31.2538 3.4375C26.3307 3.4375 21.6093 5.41294 18.1282 8.92925C14.647 12.4456 12.6913 17.2147 12.6913 22.1875C12.6913 22.6019 12.5284 22.9993 12.2383 23.2924C11.9482 23.5854 11.5547 23.75 11.1445 23.75C10.7342 23.75 10.3407 23.5854 10.0506 23.2924C9.76055 22.9993 9.59758 22.6019 9.59758 22.1875ZM62.1913 40.9375C59.8942 40.9347 57.6785 41.7968 55.9768 43.3555C55.8448 41.6116 55.2326 39.9398 54.2092 38.5289C53.1859 37.1181 51.7922 36.0246 50.1858 35.372C48.5794 34.7193 46.8243 34.5336 45.1188 34.8358C43.4134 35.138 41.8257 35.9161 40.5351 37.082V22.1875C40.5351 19.7011 39.5572 17.3165 37.8167 15.5584C36.0761 13.8002 33.7154 12.8125 31.2538 12.8125C28.7923 12.8125 26.4316 13.8002 24.691 15.5584C22.9504 17.3165 21.9726 19.7011 21.9726 22.1875V58.9062L17.6181 51.8516C16.3547 49.761 14.3315 48.253 11.9814 47.6499C9.63128 47.0469 7.14084 47.3969 5.04286 48.6249C2.94489 49.8529 1.40599 51.8615 0.755391 54.2209C0.104788 56.5803 0.394145 59.1033 1.56156 61.25L12.9002 80.7812C13.1211 81.1051 13.4549 81.3328 13.8348 81.419C14.2146 81.5052 14.6127 81.4435 14.9496 81.2463C15.2864 81.049 15.5372 80.7307 15.652 80.3549C15.7667 79.9791 15.7369 79.5734 15.5685 79.2188L4.23379 59.6875C3.41327 58.2516 3.19107 56.5453 3.61606 54.9439C4.04105 53.3425 5.07842 51.9772 6.49996 51.1484C7.9215 50.3196 9.61076 50.0952 11.1961 50.5245C12.7815 50.9538 14.1331 52.0016 14.9536 53.4375L14.9807 53.4844L22.2046 65.2031C22.382 65.4923 22.6481 65.7151 22.9623 65.8376C23.2765 65.9602 23.6217 65.9758 23.9455 65.8821C24.2693 65.7884 24.5539 65.5905 24.7562 65.3185C24.9585 65.0465 25.0674 64.7152 25.0663 64.375V22.1875C25.0663 20.5299 25.7182 18.9402 26.8786 17.7681C28.039 16.596 29.6128 15.9375 31.2538 15.9375C32.8949 15.9375 34.4687 16.596 35.6291 17.7681C36.7894 18.9402 37.4413 20.5299 37.4413 22.1875V48.75C37.4413 49.1644 37.6043 49.5618 37.8944 49.8549C38.1845 50.1479 38.5779 50.3125 38.9882 50.3125C39.3985 50.3125 39.7919 50.1479 40.082 49.8549C40.3721 49.5618 40.5351 49.1644 40.5351 48.75V44.0625C40.5351 42.4049 41.187 40.8152 42.3474 39.6431C43.5077 38.471 45.0816 37.8125 46.7226 37.8125C48.3636 37.8125 49.9374 38.471 51.0978 39.6431C52.2582 40.8152 52.9101 42.4049 52.9101 44.0625V51.875C52.9101 52.2894 53.0731 52.6868 53.3631 52.9799C53.6532 53.2729 54.0467 53.4375 54.457 53.4375C54.8672 53.4375 55.2607 53.2729 55.5508 52.9799C55.8409 52.6868 56.0038 52.2894 56.0038 51.875V50.3125C56.0038 48.6549 56.6557 47.0652 57.8161 45.8931C58.9765 44.721 60.5503 44.0625 62.1913 44.0625C63.8324 44.0625 65.4062 44.721 66.5666 45.8931C67.7269 47.0652 68.3788 48.6549 68.3788 50.3125V64.375C68.3788 73.2266 65.4746 79.2422 65.4475 79.3008C65.3565 79.4844 65.3022 79.6843 65.2877 79.8892C65.2732 80.094 65.2988 80.2997 65.3631 80.4946C65.4274 80.6894 65.5291 80.8695 65.6624 81.0246C65.7956 81.1797 65.9578 81.3067 66.1397 81.3984C66.355 81.506 66.5918 81.5621 66.832 81.5625C67.1193 81.5627 67.4011 81.482 67.6456 81.3296C67.8902 81.1771 68.0878 80.9588 68.2164 80.6992C68.3479 80.4297 71.4726 74.0078 71.4726 64.375V50.3125C71.4726 47.8261 70.4947 45.4415 68.7542 43.6834C67.0136 41.9252 64.6529 40.9375 62.1913 40.9375Z" fill="#DB5125"/>
</svg>
