<?xml version="1.0" standalone="no"?>
<!DOCTYPE svg PUBLIC "-//W3C//DTD SVG 20010904//EN"
 "http://www.w3.org/TR/2001/REC-SVG-20010904/DTD/svg10.dtd">
<svg version="1.0" xmlns="http://www.w3.org/2000/svg"
 width="96.000000pt" height="96.000000pt" viewBox="0 0 96.000000 96.000000"
 preserveAspectRatio="xMidYMid meet">
<metadata>
Created by potrace 1.14, written by Peter Selinger 2001-2017
</metadata>
<g transform="translate(0.000000,96.000000) scale(0.100000,-0.100000)"
fill="#000000" stroke="none">
<path d="M0 480 l0 -480 480 0 480 0 0 480 0 480 -480 0 -480 0 0 -480z m430
265 c40 -41 68 -44 108 -10 53 44 116 29 128 -32 5 -26 1 -37 -19 -57 -33 -33
-61 -33 -99 -1 -46 39 -75 33 -140 -28 -62 -57 -70 -80 -39 -118 16 -20 22
-22 45 -11 14 6 32 27 40 46 26 62 116 56 132 -10 16 -62 -39 -106 -105 -84
-22 7 -46 10 -54 7 -18 -7 -28 -66 -16 -89 12 -23 52 -33 77 -19 12 6 37 11
56 11 46 0 76 29 76 73 0 42 29 70 70 70 41 0 70 -28 70 -70 0 -45 -30 -73
-78 -73 -50 0 -62 -14 -62 -71 0 -35 -6 -55 -23 -74 -45 -53 -137 -25 -152 46
-4 16 -18 38 -32 49 -22 17 -35 19 -89 14 -61 -6 -64 -6 -93 24 -60 59 -32
159 49 177 41 9 50 63 17 108 -35 46 -39 64 -23 102 17 40 39 54 87 55 27 0
43 -8 69 -35z"/>
<path d="M325 725 c-14 -13 -25 -29 -25 -35 0 -6 11 -22 25 -35 13 -14 29 -25
35 -25 14 0 60 46 60 60 0 14 -46 60 -60 60 -6 0 -22 -11 -35 -25z"/>
<path d="M566 704 c-10 -26 19 -52 42 -38 9 6 17 20 17 30 0 26 -50 32 -59 8z"/>
<path d="M491 521 c-13 -24 9 -57 33 -48 23 9 31 34 16 52 -17 20 -37 19 -49
-4z"/>
<path d="M260 460 c-41 -41 -14 -110 43 -110 33 0 70 45 61 74 -8 27 -41 56
-65 56 -10 0 -28 -9 -39 -20z"/>
<path d="M664 436 c-10 -26 4 -48 28 -44 17 2 23 10 23 28 0 18 -6 26 -23 28
-13 2 -25 -3 -28 -12z"/>
<path d="M491 288 c-18 -50 27 -90 68 -62 23 17 28 53 9 72 -21 21 -68 15 -77
-10z"/>
</g>
</svg>
